<svg xmlns="http://www.w3.org/2000/svg" viewBox="0 0 500 500"><g id="freepik--background-complete--inject-17"><path d="M150.09,130.28c.12,0,1.77,8.35,1.77,8.35l74.81-15.35L210.3,47.58l12,70.45Z" style="fill:#f5f5f5"></path><rect x="140.73" y="49.17" width="75.73" height="75.73" transform="translate(-12.05 31.11) rotate(-9.63)" style="fill:#fff"></rect><path d="M222.26,118s0-.12-.07-.35-.1-.58-.18-1c-.16-.91-.39-2.26-.7-4-.6-3.51-1.49-8.64-2.61-15.18-2.24-13.06-5.43-31.7-9.25-54.06l.16.11L135,56.21h0l.14-.2c4.63,27.35,9,53,12.65,74.67l-.17-.12,54.1-9.1,15.19-2.54,4-.67,1-.16.36-.06-.34.07-1,.18-4,.69-15.15,2.61-54.16,9.27-.14,0,0-.14c-3.69-21.7-8-47.32-12.69-74.66l0-.16.17,0h0l74.65-12.65.15,0,0,.15c3.77,22.41,6.92,41.09,9.12,54.18,1.09,6.53,2,11.65,2.54,15.16.28,1.74.51,3.08.66,4,.07.44.12.78.16,1S222.26,118,222.26,118Z" style="fill:#e0e0e0"></path><path d="M183.8,69.35a1,1,0,0,1-.79-.2,1.11,1.11,0,0,1-.43-.71,1.26,1.26,0,0,1-.21-.51c-.12-1-.33-2.39-.62-4.22s-.47-3.08-.56-3.74c0-.25-.12-.67-.22-1.28s-.2-1.17-.27-1.7a11.18,11.18,0,0,1-.1-1.49,1,1,0,0,1,.17-.58,1.08,1.08,0,0,1,.47-.4,1.06,1.06,0,0,1,.64-.39c1.05-.19,2.57-.45,4.53-.77l4-.66a1.07,1.07,0,0,1,1.24.91,1,1,0,0,1-.19.81,1,1,0,0,1-.71.43l-3.84.62-4.15.7a11.21,11.21,0,0,0,.23,1.65c.16.89.27,1.51.32,1.85l.14.88c.7-.15,1.44-.29,2.24-.41s1.7-.26,2.71-.41l2.25-.33a1.06,1.06,0,0,1,.81.19,1.09,1.09,0,0,1,.43.72,1.06,1.06,0,0,1-.19.81,1.09,1.09,0,0,1-.72.43l-2.27.34c-1,.14-1.91.27-2.7.4s-1.53.26-2.24.41c.32,2,.54,3.49.66,4.37,3.5-.49,6.21-.9,8.11-1.23a1.08,1.08,0,0,1,.82.18,1,1,0,0,1,.44.7,1.12,1.12,0,0,1-.18.82,1,1,0,0,1-.7.44C191,68.32,188,68.77,183.8,69.35Z" style="fill:#e0e0e0"></path><path d="M198.72,66.62a4.86,4.86,0,0,1-2-1.07,6.51,6.51,0,0,1-1.13-1.37,4.67,4.67,0,0,1-.56-1.31,7.75,7.75,0,0,1-.21-1.76,5.52,5.52,0,0,1,.35-1.88,5.85,5.85,0,0,1,1-1.78A5.77,5.77,0,0,1,198,56.07a5.6,5.6,0,0,1,2.39-.61,5.37,5.37,0,0,1,2.23.34,5.3,5.3,0,0,1,1.72,1.11,4.35,4.35,0,0,1,.82.93c.11.22.22.42.31.61s.18.35.24.49.13.28.19.42a4.06,4.06,0,0,1,.16.52,1.43,1.43,0,0,1,0,.77,1.29,1.29,0,0,1-.43.62,1.65,1.65,0,0,1-.59.2l-3.66.64c-2.58.42-3.86.65-3.86.7h-.06a2.91,2.91,0,0,0,1.44,1.53,4.87,4.87,0,0,0,2.55.35,5,5,0,0,0,1.39-.31,6,6,0,0,0,.85-.45l.63-.48a1,1,0,0,1,.82-.09,1.06,1.06,0,0,1,.65.52,1,1,0,0,1,.1.8,1.43,1.43,0,0,1-.48.69,5.82,5.82,0,0,1-.66.44,10.94,10.94,0,0,1-1,.5,8.1,8.1,0,0,1-2.08.51A8.26,8.26,0,0,1,198.72,66.62Zm4.84-7.06a4.18,4.18,0,0,0-.82-1.13,3.26,3.26,0,0,0-2.3-.8,3.13,3.13,0,0,0-2.26.94,3.75,3.75,0,0,0-1.07,2.13Q198.34,60.45,203.56,59.56Z" style="fill:#e0e0e0"></path><path d="M196,105s1.7,8.42,2.05,9.2c0,0-1.6,2.17-1.43,2.77s1.46,1.6,1.46,1.6l3.27-.56,3.42-2.22.1-5.49-2-5.13-2.59-2Z" style="fill:#e0e0e0"></path><path d="M144.75,94.67c0,.28-.44,3.71.88,5.24a22,22,0,0,0,5.37,4.34,8.48,8.48,0,0,0,7.12-2s.65-3.53-.23-4.27-3-2.62-3.06-1.8a5.78,5.78,0,0,0,.31,1.82s-1.36.07-1.2.66a5.39,5.39,0,0,0,1.27,1.56,15.29,15.29,0,0,1-2.07.35c-.5,0-2.55-1-2.62-2.53s2.4-5.42,3.83-6.91,6.3-5.33,6.3-5.33l6.46-3.22L162.85,73S155.38,75.47,151,80.6,144.78,92,144.75,94.67Z" style="fill:#ebebeb"></path><path d="M177.84,104.12s3.48,1.45,5,2,7.4,1.64,9.18,1.08,7.61-2.52,7.61-2.52l2.12-17.29,3.07-3.83s-4.26-4-6.86-4.38-10.11,1.53-10.11,1.53-9.37,3.55-9.57,3.93-1.85,15.17-1.85,15.17Z" style="fill:#ebebeb"></path><path d="M168,95s.32,5.16-.24,6-2.44,7.08-2.06,8.49,1.61,2.88,3.73,5.47a22.9,22.9,0,0,0,3.33,3.5l3.81-5.69-1.93-6.41,1-7.61Z" style="fill:#ebebeb"></path><path d="M162.85,73s2.67-2.09,3.77-2.08c2.33,0,7.41,2.9,7.41,2.9l15,6.77L177.67,96l-7.9,3.84-4.2-7.87-7.25-5.51Z" style="fill:#ebebeb"></path><path d="M169.33,97.77c-.11.15.59,14.2.59,14.2l.28,8.3s-1.38,1.78-1.28,2.33a1.45,1.45,0,0,0,.63.87s3.14-.65,4.52-.81,3.71-.59,3.67-.84a1.18,1.18,0,0,1,.25-.76l-1.08-.94a25.69,25.69,0,0,1,1.24-6c1-2.55,1-7.54,1-7.54l1.5-6.87s-.34-5.33-.38-5.18a31.12,31.12,0,0,1-3.68.27Z" style="fill:#ebebeb"></path><path d="M172.67,123a2.44,2.44,0,0,1,.66-1.85.92.92,0,0,1,.69-.34,1.07,1.07,0,0,1,.64.43,5.3,5.3,0,0,1,.76,1.24" style="fill:#ebebeb"></path><path d="M169.65,123.41s.41-1.8.86-2,1.86,1.49,1.86,1.49Z" style="fill:#ebebeb"></path><path d="M171.7,74.22s4.9-1,6.64-.85,6,2.12,6.36,3,.53,9.09-.12,9.62a23.28,23.28,0,0,1-2.24,1.29c-1.15.72-1.41.94-2,.67s-.23.36-1.22,1-2,.66-2.25,1.17-1.72,4.26-2.22,4.76a1.67,1.67,0,0,1-2.66-.62c-.75-1.44-2.95-11.44-3-11.3" style="fill:#ebebeb"></path><path d="M169,83a2.77,2.77,0,0,1,.14.51c.09.35.21.85.37,1.5.31,1.3.75,3.18,1.35,5.49.15.58.31,1.18.49,1.81a17.28,17.28,0,0,0,.64,1.92,2.3,2.3,0,0,0,.66.8,1.55,1.55,0,0,0,1,.26,1.67,1.67,0,0,0,.53-.14,1.19,1.19,0,0,0,.44-.32,5.38,5.38,0,0,0,.56-1c.34-.72.65-1.46,1-2.22.16-.39.32-.77.49-1.16.05-.09.09-.19.14-.29a.68.68,0,0,1,.22-.26,2,2,0,0,1,.59-.28,8.19,8.19,0,0,0,1.18-.5,2.46,2.46,0,0,0,1-.86l.16-.3a.26.26,0,0,1,.16-.12.21.21,0,0,1,.11,0l.09,0c.11,0,.2.09.31.12a.61.61,0,0,0,.3,0,2,2,0,0,0,.6-.26c.2-.11.39-.23.58-.36.39-.24.78-.47,1.18-.67a7.74,7.74,0,0,0,1.16-.66l.13-.1,0,0,0-.07a2.11,2.11,0,0,0,.1-.3c0-.21.08-.43.1-.64.05-.43.08-.87.1-1.29.08-1.72.06-3.38,0-4.95,0-.4,0-.78-.08-1.17l-.06-.56a2.25,2.25,0,0,0-.12-.54,1.9,1.9,0,0,0-.36-.39l-.44-.32c-.3-.2-.61-.37-.92-.54a19.59,19.59,0,0,0-3.6-1.48,6.87,6.87,0,0,0-.85-.19,4.53,4.53,0,0,0-.82,0,14,14,0,0,0-1.51.12c-.94.1-1.75.24-2.41.34l-1.51.27-.39.07-.14,0,.13,0,.4-.08,1.51-.29c.65-.12,1.46-.25,2.4-.37.47-.06,1-.11,1.52-.13a7.77,7.77,0,0,1,.83,0,6.63,6.63,0,0,1,.86.19A19.75,19.75,0,0,1,183,75a9.74,9.74,0,0,1,.93.54l.45.32a1.62,1.62,0,0,1,.39.43,2.27,2.27,0,0,1,.13.56c0,.19,0,.38.06.57,0,.39.06.78.08,1.17.08,1.58.1,3.24,0,5,0,.43,0,.86-.11,1.3a5,5,0,0,1-.1.66c0,.11-.06.21-.1.32l0,.08-.07.08-.13.11a8.49,8.49,0,0,1-1.18.66c-.4.2-.78.43-1.17.67-.19.12-.38.25-.58.36a2.3,2.3,0,0,1-.64.28,1.16,1.16,0,0,1-.67-.14c-.11,0-.17,0-.22.06a2,2,0,0,0-.16.29,2.75,2.75,0,0,1-1,.9,6.92,6.92,0,0,1-1.2.5,2.5,2.5,0,0,0-.57.27,1.2,1.2,0,0,0-.32.51c-.17.38-.33.77-.49,1.15-.32.76-.63,1.51-1,2.22a5.79,5.79,0,0,1-.58,1,1.24,1.24,0,0,1-.48.34,1.86,1.86,0,0,1-.56.15,1.65,1.65,0,0,1-1.08-.28,2.41,2.41,0,0,1-.69-.84,16.16,16.16,0,0,1-.63-1.94c-.18-.63-.34-1.23-.49-1.81-.58-2.32-1-4.2-1.32-5.5-.15-.65-.26-1.15-.34-1.5l-.09-.39A1.33,1.33,0,0,0,169,83Z" style="fill:#e0e0e0"></path><path d="M182.68,82.44a1.15,1.15,0,0,1,0-.17V81.8a14.31,14.31,0,0,0-.11-1.75,5.24,5.24,0,0,0-.88-2.4,3.38,3.38,0,0,0-1.11-1,3.68,3.68,0,0,0-1.56-.41,8.91,8.91,0,0,0-1.64,0,13.85,13.85,0,0,0-1.52.23,17.19,17.19,0,0,0-2.49.72,14.06,14.06,0,0,0-1.6.72,3.54,3.54,0,0,0-.39.27l-.13.1,0,0,.09-.09a2,2,0,0,1,.38-.29c.18-.11.41-.22.67-.35s.58-.26.92-.4a14.69,14.69,0,0,1,2.5-.75,13.62,13.62,0,0,1,1.53-.24,9.06,9.06,0,0,1,1.66-.06,4,4,0,0,1,1.6.43,3.43,3.43,0,0,1,1.15,1,5.31,5.31,0,0,1,.87,2.45,11.65,11.65,0,0,1,.07,1.76c0,.19,0,.35,0,.47A1.15,1.15,0,0,1,182.68,82.44Z" style="fill:#e0e0e0"></path><path d="M167.69,86l-.05,0-.15.13-.6.49-2.17,1.76h0l-1.4.61,0,0,0,0-2.44-1.73-1-.73h0v0a4.82,4.82,0,0,1-.1-.75,2.48,2.48,0,0,1,.05-.72.87.87,0,0,1,.15-.34,1.49,1.49,0,0,1,.12-.14l.13-.1.48-.45c.62-.59,1.15-1.13,1.61-1.57s.8-.8,1.06-1.06l.29-.28c.06-.06.1-.1.1-.09l-.09.1-.27.3-1,1.08c-.44.45-1,1-1.59,1.59l-.48.46-.13.11a.57.57,0,0,0-.11.11,1,1,0,0,0-.13.3,2.7,2.7,0,0,0,0,.7,4.45,4.45,0,0,0,.1.72l0,0,1,.73L163.32,89h-.06l1.41-.61h0l2.19-1.72.62-.47.16-.12Z" style="fill:#e0e0e0"></path><path d="M160.38,86.26s-5.24,3-6.71,3.14a41.27,41.27,0,0,1-6.29-.94s2.76,2.58,4.79,3.13A10.13,10.13,0,0,0,158,92,24.76,24.76,0,0,0,163.41,89,2.69,2.69,0,0,0,160.38,86.26Z" style="fill:#fff"></path><path d="M160.38,86.26s0,0,.08,0h.24a1.31,1.31,0,0,1,.39,0l.25,0c.08,0,.17,0,.27.07a2.21,2.21,0,0,1,1.21.82,2.61,2.61,0,0,1,.43.83,3.62,3.62,0,0,1,.2,1v0h0c-.67.47-1.44,1-2.3,1.48a16,16,0,0,1-2.91,1.4,7.06,7.06,0,0,1-1.74.34,8.35,8.35,0,0,1-1.86-.07,16.79,16.79,0,0,1-1.89-.4c-.31-.08-.63-.16-.95-.27l-.47-.2-.45-.23a19.33,19.33,0,0,1-3.52-2.6l-.15-.14.2,0c1,.2,1.92.39,2.82.55s1.78.29,2.6.37a4,4,0,0,0,1.2,0c.18-.06.37-.1.54-.17l.52-.2c.68-.28,1.29-.57,1.84-.84,1.1-.55,2-1,2.55-1.34l.68-.37.18-.09s.06,0,.06,0l-.06,0-.17.11-.67.39c-.59.33-1.44.81-2.54,1.36-.55.28-1.16.58-1.84.86l-.52.2a4.42,4.42,0,0,1-.55.17,3.62,3.62,0,0,1-1.23,0c-.83-.07-1.7-.2-2.61-.36s-1.85-.34-2.82-.54l0-.1a19.1,19.1,0,0,0,3.5,2.58l.44.23.46.19c.31.1.62.19.94.27a16.18,16.18,0,0,0,1.88.4,8.7,8.7,0,0,0,1.83.07,6.9,6.9,0,0,0,1.72-.33,16.14,16.14,0,0,0,2.89-1.38c.86-.51,1.63-1,2.31-1.46l0,0a3.37,3.37,0,0,0-.6-1.82,2.24,2.24,0,0,0-1.17-.82c-.1,0-.18-.06-.27-.07l-.25,0a1.75,1.75,0,0,0-.38,0h-.32Z" style="fill:#e0e0e0"></path><path d="M149.86,86.85s-.15,0-.38,0a8.27,8.27,0,0,1-.86-.3,8.66,8.66,0,0,0-.85-.29,2.52,2.52,0,0,1-.36-.09.88.88,0,0,1,.38,0,4.87,4.87,0,0,1,.87.27c.33.12.63.25.85.32A3.24,3.24,0,0,1,149.86,86.85Z" style="fill:#e0e0e0"></path><path d="M148.31,95.74a1.45,1.45,0,0,1-.51.2,5.31,5.31,0,0,1-1.3.2,4.49,4.49,0,0,1-1.31-.12,1.34,1.34,0,0,1-.51-.21s.2.07.52.13a5.46,5.46,0,0,0,1.29.09,6.64,6.64,0,0,0,1.29-.17C148.11,95.79,148.3,95.73,148.31,95.74Z" style="fill:#e0e0e0"></path><path d="M148.13,92.89s-.64-.21-1.46-.36-1.51-.12-1.51-.16a1.55,1.55,0,0,1,.45,0,6.76,6.76,0,0,1,1.08.09,5.65,5.65,0,0,1,1,.28A1.47,1.47,0,0,1,148.13,92.89Z" style="fill:#e0e0e0"></path><path d="M148.72,98a1.24,1.24,0,0,1-.42.36,5,5,0,0,1-1.23.53,4.88,4.88,0,0,1-1.33.21,1.32,1.32,0,0,1-.55-.07s.21,0,.55,0a6.3,6.3,0,0,0,1.29-.24,7,7,0,0,0,1.23-.49C148.55,98.11,148.71,98,148.72,98Z" style="fill:#e0e0e0"></path><path d="M150.09,100.86a1,1,0,0,1-.3.22,4.86,4.86,0,0,1-.81.37,5.06,5.06,0,0,1-.85.25c-.22,0-.36,0-.36,0s.13,0,.34-.1.51-.16.83-.28.61-.24.81-.33A3.41,3.41,0,0,1,150.09,100.86Z" style="fill:#e0e0e0"></path><path d="M196.47,91.46c-.11.17-1.13,5.32-.47,7.17s5.86,12.2,5.86,12.2l.56,3.27s-1.58,2.94-1.34,3.39a.83.83,0,0,0,.6.48l8.84-1.5.06-.77-1-1.33-.41-.77s-.75-4.44-.73-4.72-.19-12.25-.19-12.25L208,88.22a23.93,23.93,0,0,0-2.77-4.34C204,82.68,198,81.32,198,81.32Z" style="fill:#ebebeb"></path><path d="M211.52,102.34a3.53,3.53,0,0,0,.18,2.19c.56,1.2,3.07,2.75,3.23,2.76s-.34-.81-.34-.81a6.24,6.24,0,0,0,2.41.46c.76-.17.19,0,.19,0l.46-.08s-1.77-.68-2.24-1.59a8.34,8.34,0,0,0-2.39-2.79,2,2,0,0,0-.92-.21Z" style="fill:#e0e0e0"></path><path d="M208,88.22a9.69,9.69,0,0,1,2.15,4.72,50.37,50.37,0,0,0,1.46,6.82,47.2,47.2,0,0,0,1.8,4.88,16.16,16.16,0,0,1-2.43-3.27,16.76,16.76,0,0,1-1.47-4.28,8.37,8.37,0,0,0-1.79-4.4C206.44,91,208,88.22,208,88.22Z" style="fill:#ebebeb"></path><path d="M148.51,90.32s-.55-.26-1.27-.45-1.32-.24-1.31-.27a3.14,3.14,0,0,1,1.34.16A3.45,3.45,0,0,1,148.51,90.32Z" style="fill:#e0e0e0"></path><path d="M217.62,106.84l-.46.08h0l.11,0,0,0h0s0,0,0,0l-.26.06a1.86,1.86,0,0,1-.68,0,7.71,7.71,0,0,1-1.85-.47v0a4.06,4.06,0,0,1,.33.62.33.33,0,0,1,0,.2s-.05,0-.06,0l0,0-.08,0-.35-.2a14.1,14.1,0,0,1-1.41-1,7.16,7.16,0,0,1-.72-.65,3.18,3.18,0,0,1-.61-.83,2.88,2.88,0,0,1-.29-1.06,3.62,3.62,0,0,1,0-.57,2.93,2.93,0,0,1,.05-.29l0-.14a1.05,1.05,0,0,0,0-.13v0h0v0a6.77,6.77,0,0,1-.53-.91c-.14-.33-.29-.66-.43-1a17.52,17.52,0,0,1-.84-2.19c-.26-.77-.25-1.64-.48-2.48a8.31,8.31,0,0,0-1.12-2.45h0c0,1.4.09,2.89.11,4.45s.06,3.19.09,4.89,0,3.47.08,5.31v.69c0,.11,0,.24,0,.34s0,.23,0,.35l.21,1.39c.16.94.32,1.9.48,2.86h0l.41.77h0l1,1.33h0v0c0,.23,0,.5-.05.77v0h0l-8.83,1.5h0a.81.81,0,0,1-.47-.26,1.19,1.19,0,0,1-.16-.23.43.43,0,0,1,0-.29,5.07,5.07,0,0,1,.35-1.06c.29-.7.64-1.4,1-2.09v0c-.17-1-.36-2.13-.55-3.28v0l-2.92-5.9.06,0-4.58,1.52-2.34.78a4.48,4.48,0,0,1-.62.11c-.21,0-.42,0-.63,0-.42,0-.84,0-1.26,0a36.67,36.67,0,0,1-5.05-.76c-.42-.09-.84-.19-1.26-.32a12.75,12.75,0,0,1-1.22-.46l-2.45-1,.07,0c-.12.55-.25,1.16-.39,1.78h0c0,1.08-.09,2.18-.19,3.29a23.23,23.23,0,0,1-.56,3.37c-.14.56-.37,1.1-.54,1.65s-.32,1.12-.44,1.69a27.25,27.25,0,0,0-.53,3.51l0,0L178,121l0,0,0,0a1.2,1.2,0,0,0-.25.62s0,0,0,.08v0a.06.06,0,0,1,0,0,.13.13,0,0,1,0,.06.75.75,0,0,1-.17.1l-.36.12c-.47.13-1,.23-1.47.32-.25,0-.5.09-.76.12l-.76.15-1.54.29h-.06v-.16l.07.05-3.12.6h0a1.54,1.54,0,0,1-.61-.7.65.65,0,0,1-.06-.24.69.69,0,0,1,0-.25,2.25,2.25,0,0,1,.19-.45,12.2,12.2,0,0,1,1.08-1.64v0c-.05-1.39-.1-2.93-.16-4.47l0,0c-.55-.65-1.09-1.3-1.63-2s-1.07-1.33-1.58-2a7.5,7.5,0,0,1-1.21-2.31,2.5,2.5,0,0,1-.05-.67c0-.22,0-.44.06-.65.06-.44.14-.88.23-1.31.18-.86.41-1.72.65-2.57s.52-1.71.84-2.55a4.85,4.85,0,0,1,.27-.62.8.8,0,0,1,.08-.16.59.59,0,0,0,.06-.14,1.81,1.81,0,0,0,.09-.31,8.58,8.58,0,0,0,.14-1.34c0-.89,0-1.8,0-2.7v0L165.49,92v0l-3-2.31h.07c-.6.39-1.23.78-1.89,1.15a17.06,17.06,0,0,1-2.06,1,7.49,7.49,0,0,1-2.47.49,10.39,10.39,0,0,1-2.49-.27l.06,0a23.17,23.17,0,0,0-1.83,2.69c-.27.47-.52.94-.75,1.43a6.51,6.51,0,0,0-.52,1.52,1.92,1.92,0,0,0,.35,1.48,3,3,0,0,0,.54.58,4.7,4.7,0,0,0,.64.46,3.9,3.9,0,0,0,.72.33,1,1,0,0,0,.38,0,2.58,2.58,0,0,0,.39,0c.52-.08,1.05-.19,1.56-.3l0,.1c-.23-.21-.44-.42-.64-.64A3.87,3.87,0,0,1,154,99a2,2,0,0,1-.1-.21s0-.09,0-.13a.59.59,0,0,1,0-.13.66.66,0,0,1,.37-.31,2.66,2.66,0,0,1,.88-.18l-.05.08a6.06,6.06,0,0,1-.29-1.26,2.81,2.81,0,0,1,0-.65.23.23,0,0,1,.11-.17.31.31,0,0,1,.19,0,1,1,0,0,1,.31.1,7.09,7.09,0,0,1,1.07.71l1,.8.48.41a1.19,1.19,0,0,1,.33.56,4.93,4.93,0,0,1,.15,1.26,14.91,14.91,0,0,1-.24,2.5v0h0a8,8,0,0,1-1.38,1,9.46,9.46,0,0,1-4.86,1.14,3.35,3.35,0,0,1-.83-.14,3.24,3.24,0,0,1-.75-.36,16.48,16.48,0,0,1-1.36-1,28.57,28.57,0,0,1-2.49-2.14c-.19-.19-.39-.39-.57-.59a3.61,3.61,0,0,1-.53-.63,4.4,4.4,0,0,1-.58-1.52,12.84,12.84,0,0,1-.13-3.21,13.93,13.93,0,0,1,.45-3.16,25.56,25.56,0,0,1,1-3,29,29,0,0,1,1.28-2.84c.23-.46.49-.9.74-1.35l.4-.66c.13-.22.26-.43.41-.64a22.78,22.78,0,0,1,3.9-4.6,28.56,28.56,0,0,1,4.82-3.36A34.42,34.42,0,0,1,162.8,73h0a16.91,16.91,0,0,1,2.67-1.73l.36-.17a3.37,3.37,0,0,1,.38-.13l.19,0,.2,0,.39,0a9.59,9.59,0,0,1,1.52.35,26,26,0,0,1,2.82,1.14c.91.43,1.79.88,2.66,1.35h0a30.45,30.45,0,0,1,3.63-.44,4.63,4.63,0,0,1,.91,0,6.77,6.77,0,0,1,.87.19c.57.17,1.12.37,1.66.59s1.07.45,1.58.71a11.3,11.3,0,0,1,1.47.86,2.17,2.17,0,0,1,.62.59,1.25,1.25,0,0,1,.11.41c0,.14,0,.28.06.42.06.55.09,1.1.12,1.64l0,0,3.82,1.73h0c1.61-.38,3.18-.72,4.72-1,.77-.12,1.53-.23,2.28-.3a9.16,9.16,0,0,1,2.22,0,7.18,7.18,0,0,1,2,.78c.62.35,1.2.72,1.76,1.11a33.91,33.91,0,0,1,3.07,2.49l0,0,0,0h0v0a2,2,0,0,1,.33.24c.1.09.18.19.28.28s.32.4.47.61c.29.4.55.81.8,1.21.49.79.91,1.56,1.29,2.31h0a8.84,8.84,0,0,1,1.29,2,10.08,10.08,0,0,1,.73,2.1c.16.7.25,1.38.37,2s.23,1.29.35,1.89a36.31,36.31,0,0,0,1.71,6h0a3,3,0,0,1,.43.12,1.44,1.44,0,0,1,.39.2,4.61,4.61,0,0,1,.6.56,9.88,9.88,0,0,1,.93,1.13,10.88,10.88,0,0,1,.66,1,2.58,2.58,0,0,0,.68.71,7.25,7.25,0,0,0,1.12.65c.26.13.39.18.39.18l-.39-.17a6.8,6.8,0,0,1-1.13-.65,2.6,2.6,0,0,1-.69-.71,10.2,10.2,0,0,0-.66-1,11,11,0,0,0-.93-1.12,4.61,4.61,0,0,0-.6-.56,1.5,1.5,0,0,0-.38-.19,3,3,0,0,0-.43-.12h0a37.13,37.13,0,0,1-1.73-6c-.12-.6-.23-1.24-.34-1.89s-.22-1.34-.38-2a10,10,0,0,0-.73-2.09,8.47,8.47,0,0,0-1.28-2h0c-.39-.75-.81-1.52-1.29-2.31-.25-.4-.51-.8-.8-1.21-.15-.2-.3-.4-.47-.59a3.71,3.71,0,0,0-.27-.29l-.32-.23,0,0,0,0h0v0a33.77,33.77,0,0,0-3.07-2.47A17.38,17.38,0,0,0,200,80a6.55,6.55,0,0,0-2-.78,10.22,10.22,0,0,0-2.21,0c-.74.07-1.5.18-2.27.31-1.53.26-3.1.59-4.71,1h0l-3.83-1.73h0v0c0-.55-.06-1.09-.12-1.64l-.06-.41a1.18,1.18,0,0,0-.11-.39,2,2,0,0,0-.59-.56,11.12,11.12,0,0,0-1.46-.85c-.51-.26-1-.49-1.57-.71a15.5,15.5,0,0,0-1.66-.58,8.26,8.26,0,0,0-.86-.2,5.15,5.15,0,0,0-.88,0,30.45,30.45,0,0,0-3.63.44h0c-.86-.48-1.74-.93-2.65-1.35a24.65,24.65,0,0,0-2.81-1.14A9.61,9.61,0,0,0,167,71a2.34,2.34,0,0,0-1.47.32,17.2,17.2,0,0,0-2.65,1.73h0a32.88,32.88,0,0,0-5.18,2.35,28.35,28.35,0,0,0-4.8,3.35A22.2,22.2,0,0,0,149,83.34c-.15.21-.28.43-.41.65l-.4.65c-.24.45-.51.89-.74,1.35a27.72,27.72,0,0,0-1.27,2.83,23.62,23.62,0,0,0-.95,3,13.67,13.67,0,0,0-.45,3.13,12.63,12.63,0,0,0,.13,3.19,4.09,4.09,0,0,0,.56,1.48,5,5,0,0,0,.52.62c.18.2.37.39.57.58a28,28,0,0,0,2.47,2.13c.44.33.89.66,1.35.94a3.61,3.61,0,0,0,.74.36,4.18,4.18,0,0,0,.8.13,9.43,9.43,0,0,0,4.8-1.13,8.6,8.6,0,0,0,1.35-1l0,0a13.79,13.79,0,0,0,.23-2.48,4.27,4.27,0,0,0-.14-1.23,1.17,1.17,0,0,0-.29-.51l-.48-.4c-.32-.28-.65-.54-1-.8a5.6,5.6,0,0,0-1.05-.69.73.73,0,0,0-.28-.1c-.09,0-.16,0-.17.1a3.21,3.21,0,0,0,0,.62,5.79,5.79,0,0,0,.29,1.23l0,.07h-.07a3,3,0,0,0-.85.18.53.53,0,0,0-.3.24.51.51,0,0,0,.09.38,4.38,4.38,0,0,0,.52.7c.2.21.42.42.63.62l.09.07-.11,0c-.52.12-1,.23-1.58.31l-.4,0a1.1,1.1,0,0,1-.41-.06,4.53,4.53,0,0,1-.74-.34,5.35,5.35,0,0,1-.67-.47,3.47,3.47,0,0,1-.55-.6,2,2,0,0,1-.37-1.57,6.38,6.38,0,0,1,.53-1.54,15.28,15.28,0,0,1,.75-1.45,23.37,23.37,0,0,1,1.84-2.7l0,0h0a10.27,10.27,0,0,0,2.47.26,7.2,7.2,0,0,0,2.43-.48,24,24,0,0,0,3.92-2.13l0,0,0,0,3,2.31h0L168,96.49h0c0,.91,0,1.82,0,2.72a8.83,8.83,0,0,1-.14,1.35,2,2,0,0,1-.09.33.77.77,0,0,1-.07.16,1.09,1.09,0,0,0-.08.15,5.63,5.63,0,0,0-.27.61c-.31.83-.58,1.68-.83,2.54s-.47,1.71-.65,2.57c-.09.43-.17.86-.22,1.29,0,.22-.05.43-.06.65a2.21,2.21,0,0,0,0,.63,7.31,7.31,0,0,0,1.19,2.28c.51.7,1,1.37,1.58,2s1.08,1.31,1.62,2l0,0v0c0,1.54.1,3.08.15,4.47v0h0a11.06,11.06,0,0,0-1.07,1.62c-.14.28-.3.57-.16.85a1.48,1.48,0,0,0,.56.65h0l3.12-.59.06,0V123l-.06,0,1.54-.29.76-.14.76-.13a13.48,13.48,0,0,0,1.46-.32l.35-.11.14-.08v0h0s0,0,0,0a.33.33,0,0,1,0-.1,1.19,1.19,0,0,1,.26-.69v.07l-1.07-.94,0,0v0a31.43,31.43,0,0,1,.53-3.52c.13-.58.27-1.14.45-1.7s.4-1.09.53-1.65a23,23,0,0,0,.56-3.35c.11-1.11.18-2.21.2-3.29h0c.14-.61.27-1.23.39-1.77v-.06l.06,0,2.44,1c.41.15.81.33,1.22.46s.83.22,1.25.31a35.29,35.29,0,0,0,5,.76c.41,0,.83,0,1.25,0,.2,0,.41,0,.62,0a3.16,3.16,0,0,0,.6-.11l2.34-.77,4.58-1.51,0,0v0l2.92,5.9h0c.19,1.14.38,2.28.55,3.27v0h0c-.37.69-.72,1.39-1,2.08a5.54,5.54,0,0,0-.35,1,.38.38,0,0,0,0,.24,1,1,0,0,0,.15.21.81.81,0,0,0,.42.24h0l8.83-1.5,0,0c0-.28,0-.55.06-.78v0l-1-1.33h0c-.14-.27-.28-.54-.41-.77h0c-.16-1-.32-1.93-.47-2.86-.07-.47-.15-.94-.21-1.4,0-.12,0-.23,0-.35s0-.24,0-.35V108c0-1.84-.06-3.61-.08-5.31s0-3.34-.08-4.89-.08-3.05-.11-4.45v-.1l.05.08a7.86,7.86,0,0,1,1.13,2.47c.24.85.22,1.71.48,2.48a18,18,0,0,0,.83,2.18l.43,1a6,6,0,0,0,.52.9l0,0h0v0a.28.28,0,0,1,0,.16l0,.15c0,.09,0,.19-.05.28a3.62,3.62,0,0,0,0,.57,3,3,0,0,0,.28,1,3.18,3.18,0,0,0,.61.83,8.52,8.52,0,0,0,.71.65,13.93,13.93,0,0,0,1.41,1l.34.2c.05,0,.12.07.15.06s0-.11,0-.17a6.08,6.08,0,0,0-.33-.62v0l0,0a7.76,7.76,0,0,0,1.84.47,1.81,1.81,0,0,0,.67,0l.27-.06s0,0,0,0h-.05l0,0-.11,0h0Z" style="fill:#e0e0e0"></path><path d="M170.2,120.27V120c0-.2,0-.49,0-.85,0-.75,0-1.83-.09-3.15-.06-2.67-.14-6.34-.24-10.4,0-2-.08-4-.12-5.78v0c-1.23-2.31-2.27-4.28-3-5.68l-.85-1.63c-.09-.18-.17-.32-.22-.43l0-.11s0,0,0,0l0,0,.07.11c.05.11.13.25.23.43l.88,1.61,3,5.66h0v0c0,1.77.08,3.73.13,5.78.08,4.06.15,7.73.2,10.4,0,1.32,0,2.4,0,3.15,0,.36,0,.65,0,.85v.23S170.21,120.27,170.2,120.27Z" style="fill:#e0e0e0"></path><path d="M181.34,99.33a2,2,0,0,1,.06.26,3.92,3.92,0,0,1,.08.73,5.24,5.24,0,0,1-.51,2.35,10.94,10.94,0,0,1-.67,1.15c-.22.34-.42.65-.57.91a9.75,9.75,0,0,0-.43.89.88.88,0,0,1,.06-.26,5.31,5.31,0,0,1,.3-.67c.14-.27.33-.59.55-.93a11.87,11.87,0,0,0,.65-1.14,5.53,5.53,0,0,0,.54-2.3C181.4,99.71,181.31,99.34,181.34,99.33Z" style="fill:#e0e0e0"></path><path d="M196.44,88.45v0l0,.15c0,.14,0,.34-.06.58-.06.5-.15,1.23-.24,2.12s-.2,2-.27,3.16c0,.6-.06,1.22-.07,1.87q0,.48,0,1a4.74,4.74,0,0,0,.15,1c1.21,2.45,2.26,4.73,3,6.37l.88,2c.1.23.18.4.23.53l.06.14a.12.12,0,0,0,0,.05l0,0-.07-.14-.25-.52-.91-1.93c-.77-1.64-1.83-3.89-3.05-6.38a4.49,4.49,0,0,1-.15-1c0-.33,0-.66,0-1,0-.65,0-1.28.07-1.87.08-1.2.19-2.27.3-3.17s.2-1.62.27-2.12q.06-.36.09-.57l0-.15A.12.12,0,0,1,196.44,88.45Z" style="fill:#e0e0e0"></path><path d="M207.57,88.66a.61.61,0,0,1,.08.19q.06.2.15.54a15.74,15.74,0,0,1,.31,1.82,14.57,14.57,0,0,1,.09,1.85,4,4,0,0,1,0,.56c0,.13,0,.2,0,.2a5.32,5.32,0,0,1,0-.76c0-.47,0-1.12-.12-1.83s-.19-1.36-.28-1.82S207.56,88.67,207.57,88.66Z" style="fill:#e0e0e0"></path><path d="M166.76,79.7a.71.71,0,1,1-.49-.88A.71.71,0,0,1,166.76,79.7Z" style="fill:#e0e0e0"></path><path d="M167.32,78.24c0,.05-.4-.29-.94-.38a4.8,4.8,0,0,0-1,.06s.07-.11.26-.19a1.44,1.44,0,0,1,.78-.09,1.47,1.47,0,0,1,.72.33C167.28,78.11,167.34,78.22,167.32,78.24Z" style="fill:#e0e0e0"></path><path d="M152.87,85.22a6.09,6.09,0,0,1-.44-.45,6.73,6.73,0,0,0-1.18-.93,6,6,0,0,0-1.36-.65c-.37-.13-.6-.18-.6-.2l.17,0a3.2,3.2,0,0,1,.45.1,5.7,5.7,0,0,1,2.58,1.61,3,3,0,0,1,.29.36C152.85,85.17,152.88,85.22,152.87,85.22Z" style="fill:#e0e0e0"></path><path d="M180.14,48.74a4.39,4.39,0,1,1-4.39-4.39A4.4,4.4,0,0,1,180.14,48.74Z" style="fill:#e0e0e0"></path><polygon points="53.45 175.64 53.45 181.38 121.82 183.63 124.58 108.42 120.48 179.5 53.45 175.64" style="fill:#f5f5f5"></polygon><rect x="50.18" y="105.03" width="72.45" height="72.45" transform="translate(-59.59 219.39) rotate(-86.7)" style="fill:#fff"></rect><path d="M120.48,179.5s0-.12,0-.34,0-.57,0-1c0-.89.11-2.19.2-3.89.19-3.4.46-8.38.81-14.71.71-12.66,1.73-30.73,3-52.4l.13.15-72.32-4.14h0l.18-.16c-1.54,26.49-3,51.31-4.19,72.33l-.14-.15,52.39,3.09,14.71.89,3.88.24,1,.06.34,0h-.32l-1-.05-3.86-.2-14.68-.81-52.49-3H48v-.14c1.2-21,2.62-45.85,4.14-72.34v-.16h.18L124.66,107h.14v.15c-1.29,21.7-2.35,39.8-3.1,52.48-.38,6.31-.68,11.28-.88,14.67-.11,1.69-.19,3-.24,3.86,0,.43,0,.76-.07,1A2.4,2.4,0,0,1,120.48,179.5Z" style="fill:#e0e0e0"></path><path d="M77,126.39a12.18,12.18,0,0,0-7.59-5,1.21,1.21,0,0,0-.86,0c-.35.2-.4.68-.38,1.08a13.63,13.63,0,0,0,3.08,8,14.69,14.69,0,0,0,7.42,4.77l0-.32A11.15,11.15,0,0,0,77,126.39Z" style="fill:#ebebeb"></path><path d="M86.79,123.41c0,.06-.87.58-2.16,1.65a20.58,20.58,0,0,0-2.11,2A21.49,21.49,0,0,0,80.35,130a22.12,22.12,0,0,0-1.65,3.19,20.1,20.1,0,0,0-.93,2.78c-.41,1.63-.5,2.67-.56,2.66a2.9,2.9,0,0,1,0-.73c0-.24,0-.53.1-.86s.11-.71.21-1.12a20.18,20.18,0,0,1,.87-2.85,22.13,22.13,0,0,1,1.65-3.25,20.8,20.8,0,0,1,2.23-2.88,17.55,17.55,0,0,1,2.2-2c.32-.27.65-.48.92-.67a5.59,5.59,0,0,1,.73-.46A3.06,3.06,0,0,1,86.79,123.41Z" style="fill:#e0e0e0"></path><path d="M58.06,157.71c3.12,7.15,7.92,12.13,14.19,12.72,1.25.11,2.25-.62,3.45-.62a8.14,8.14,0,0,1,2,.84,3,3,0,0,0,1,.29c6.51,0,12.29-4,16.44-11.1,5.77-9.92,4.8-21-2.16-24.75a18,18,0,0,0-2.87-1.26,12.51,12.51,0,0,0-3.54-.61,27.67,27.67,0,0,0-8.24,1.3l-.35.1c-5.68-2.8-10.32-3.08-15-1.25C55.68,136.29,53.45,147.18,58.06,157.71Z" style="fill:#f5f5f5"></path><path d="M58.78,147.36a5.07,5.07,0,0,1-.48-2.09,10.57,10.57,0,0,1,.94-5.08,11,11,0,0,1,3.24-4.11A5.58,5.58,0,0,1,64.39,135c0,.08-.69.48-1.69,1.34a12.44,12.44,0,0,0-3,4,11.78,11.78,0,0,0-1,4.88C58.67,146.55,58.87,147.34,58.78,147.36Z" style="fill:#fafafa"></path><path d="M59.81,152.29c-.13,0-.33-.47-.45-1.1s-.1-1.17,0-1.19.34.47.45,1.11S60,152.27,59.81,152.29Z" style="fill:#fafafa"></path><path d="M72.67,125.69A39.37,39.37,0,0,1,75.59,130a42.2,42.2,0,0,1,2.63,4.49,39.37,39.37,0,0,1-2.92-4.31A42.2,42.2,0,0,1,72.67,125.69Z" style="fill:#e0e0e0"></path><g style="opacity:0.30000000000000004"><path d="M96.2,141.8c-.8-2.9-4-6.76-6.58-6.64a2.42,2.42,0,0,0-2.41,1.43,4.11,4.11,0,0,0,.19,3.13A22.82,22.82,0,0,0,89,142.49a16.38,16.38,0,0,1,2.19,6.44,7,7,0,0,0,.35,1.87,1.85,1.85,0,0,0,1.37,1.2c.91.11,1.65-.71,2.11-1.5A11.41,11.41,0,0,0,96.2,141.8Z" style="fill:#fff"></path></g><path d="M92.14,129.6a1.32,1.32,0,0,1-1.68-.81,1.24,1.24,0,0,1,.06-1c.39-.82.92-2.08,1.58-3.77s1.13-2.84,1.4-3.43c.14-.34.7-1.53,1.69-3.59s1.66-3.67,2.18-4.94a1.3,1.3,0,0,1,.7-.72,1.29,1.29,0,0,1,1.4.25,1.18,1.18,0,0,1,.69.74l5.53,16.29a1.38,1.38,0,0,1-.06,1,1.33,1.33,0,0,1-1.77.61,1.28,1.28,0,0,1-.67-.74l-1.65-5.13-1.19,0c-2.34,0-4.17-.11-5.5-.19-.9,2.24-1.56,3.82-2,4.75A1.26,1.26,0,0,1,92.14,129.6Zm8.49-7.85-2-5.82L96,121.59C97.41,121.66,99,121.71,100.63,121.75Z" style="fill:#e0e0e0"></path><path d="M112.09,130.8a6.07,6.07,0,0,1-2.17-.4,5.35,5.35,0,0,1-3.3-4,6,6,0,0,1,.14-3A10.51,10.51,0,0,1,108,121a10.07,10.07,0,0,1,1.73-2,7.82,7.82,0,0,1,2.09-1.35,4.93,4.93,0,0,1,2.41-.44,6,6,0,0,1,2.57.83,2.38,2.38,0,0,1,.44.34l.41.38.31.36c.1.11.15.17.15.19a1.26,1.26,0,0,1,.38,1,21.68,21.68,0,0,1,.26,3.28c0,1.15,0,2.22-.12,3.22s-.14,2.06-.15,3.18a1.18,1.18,0,0,1-.39.89,1.29,1.29,0,0,1-.93.36,1.21,1.21,0,0,1-.91-.39,1.25,1.25,0,0,1-.36-.9l0-.39a5.08,5.08,0,0,1-1.7,1.07A6.46,6.46,0,0,1,112.09,130.8Zm1.73-2.86a5.68,5.68,0,0,0,.61-.28,6.07,6.07,0,0,0,.76-.47,3.49,3.49,0,0,0,.75-.74l.13-.09a27.66,27.66,0,0,0-.12-5.64,1.59,1.59,0,0,0-.15-.21.64.64,0,0,1-.12-.15.43.43,0,0,0-.1-.09l-.14-.1a2.76,2.76,0,0,0-2.61-.19,5.62,5.62,0,0,0-2.54,2.23,6.11,6.11,0,0,0-1.2,3,2.78,2.78,0,0,0,.87,2.22,3,3,0,0,0,1.44.71,4.17,4.17,0,0,0,1.79,0A3.66,3.66,0,0,0,113.82,127.94Z" style="fill:#e0e0e0"></path><path d="M92.79,106.5a4.39,4.39,0,1,1-4.39-4.39A4.39,4.39,0,0,1,92.79,106.5Z" style="fill:#e0e0e0"></path><polygon points="372.5 152.68 371.29 158.96 441.09 172.98 452.39 103.69 438.4 167.2 372.5 152.68" style="fill:#f5f5f5"></polygon><rect x="376.87" y="90.64" width="69.86" height="69.86" transform="translate(200.58 500.71) rotate(-77.58)" style="fill:#fff"></rect><path d="M438.4,167.2l.06-.33c.05-.22.11-.53.2-1,.18-.83.45-2.06.79-3.66.7-3.22,1.73-7.91,3-13.89,2.61-11.94,6.34-29,10.81-49.43l.11.17-68.22-15h0l.19-.12c-5.51,25-10.68,48.39-15.05,68.22l-.11-.17,49.41,11,13.86,3.09,3.66.82.95.22.32.08-.31-.06-.93-.2-3.65-.79-13.85-3L370.14,152.3l-.13,0,0-.13c4.36-19.84,9.51-43.25,15-68.23l0-.16.16,0h0l68.21,15.06.13,0,0,.13c-4.54,20.47-8.32,37.53-11,49.49-1.33,5.95-2.37,10.63-3.09,13.84-.35,1.58-.63,2.8-.81,3.63-.1.41-.17.71-.22.93S438.4,167.2,438.4,167.2Z" style="fill:#e0e0e0"></path><path d="M418,113.76a6.42,6.42,0,0,1-1.51-1.63,8.65,8.65,0,0,1-.92-1.94,7.07,7.07,0,0,1-.35-2.11,15.87,15.87,0,0,1,.14-2.16,10.44,10.44,0,0,1,.5-2.07,11.39,11.39,0,0,1,1.11-2.34,10.21,10.21,0,0,1,1.66-2,8.06,8.06,0,0,1,2.1-1.43,6.33,6.33,0,0,1,2.49-.59,11.89,11.89,0,0,1,2.68.18,7.5,7.5,0,0,1,1.21.32,10.35,10.35,0,0,1,1.84.81,6.85,6.85,0,0,1,2.41,2.34,7.2,7.2,0,0,1,1,2.91,9.25,9.25,0,0,1-.16,3.09,12.13,12.13,0,0,1-2.84,5.66,8.32,8.32,0,0,1-2.58,1.93,8.11,8.11,0,0,1-3.23.77,9,9,0,0,1-3.42-.56A8.21,8.21,0,0,1,418,113.76Zm7.52-1.25A6.62,6.62,0,0,0,429,109a9.1,9.1,0,0,0,.86-3.1,5.55,5.55,0,0,0-.45-2.82,4.65,4.65,0,0,0-1.66-2,7.49,7.49,0,0,0-.82-.49,3.77,3.77,0,0,0-.78-.25c-.25,0-.51-.12-.8-.2a8.23,8.23,0,0,0-1.24-.2,5.05,5.05,0,0,0-3.23,1.1,6.86,6.86,0,0,0-2.63,3.65,9.47,9.47,0,0,0-.53,3.29,4.65,4.65,0,0,0,.94,2.77,6,6,0,0,0,2.42,1.81A5.55,5.55,0,0,0,425.5,112.51Z" style="fill:#e0e0e0"></path><path d="M434.21,116.42a7.36,7.36,0,0,1-1-4.49,7.24,7.24,0,0,1,1.28-3.61,6.47,6.47,0,0,1,3.52-2.71,3,3,0,0,1,1-.1l.35,0h.21a1.34,1.34,0,0,1,.71.24l.47.11.48.13.41.15.49.19.42.28a3.61,3.61,0,0,1,.51.36q.24.21.51.48a5.6,5.6,0,0,1,1.53,3.49,6.21,6.21,0,0,1-.37,3.21,8.84,8.84,0,0,1-1.32,2.28,6.63,6.63,0,0,1-2,1.67,5.19,5.19,0,0,1-2.37.71A5,5,0,0,1,434.21,116.42Zm6.7-1a4.83,4.83,0,0,0,1.41-1.77,4.43,4.43,0,0,0,.34-2.34,3.33,3.33,0,0,0-.88-2.11,3.15,3.15,0,0,0-.38-.37,1.82,1.82,0,0,0-.37-.24,1.68,1.68,0,0,0-.35-.14l-.57-.15-.77-.22-.16-.06-.3,0h-.18a3.85,3.85,0,0,0-2.06,1.5,4.57,4.57,0,0,0-.92,2.58,4.32,4.32,0,0,0,.65,2.78,3.16,3.16,0,0,0,2.51,1.27A2.81,2.81,0,0,0,440.91,115.45Z" style="fill:#e0e0e0"></path><path d="M404.39,97.58a6.44,6.44,0,0,1-2.51-.19c2.39,5.47,2.4,12.06,1.66,18l1.14-.12A54.27,54.27,0,0,0,404.39,97.58Z" style="fill:#e0e0e0"></path><path d="M420.64,120.27c6.68,8.86,3.7,22.39-5.17,29.07a20.1,20.1,0,1,1-24.2-32.1C400.13,110.56,414,111.4,420.64,120.27Z" style="fill:#f5f5f5"></path><g style="opacity:0.30000000000000004"><path d="M385.11,124.88a18.26,18.26,0,0,0,10.93-4c4.92-4.1,6.48-7.86,6.48-7.86a13.56,13.56,0,0,0-9.09,2.72,60.15,60.15,0,0,0-7.8,8.08A3.49,3.49,0,0,0,385.11,124.88Z" style="fill:#e0e0e0"></path></g><path d="M402.69,105.51a39.7,39.7,0,0,0-7.46.8,13.11,13.11,0,0,0-6.54,3.5,16,16,0,0,0-3.47,7,58.43,58.43,0,0,1-2.19,7.63,29.76,29.76,0,0,0,12.22-4.55,18.14,18.14,0,0,0,4.24-3.86,13.38,13.38,0,0,0,2.56-4.85,21.64,21.64,0,0,0,.64-5.72" style="fill:#ebebeb"></path><path d="M404.07,104.51a5,5,0,0,1-.56.57l-1.58,1.49c-1.33,1.25-3.17,3-5.17,4.94s-3.77,3.76-5,5.07l-1.52,1.55a3.26,3.26,0,0,1-.59.54,4.39,4.39,0,0,1,.5-.63c.33-.39.82-.94,1.44-1.62,1.24-1.35,3-3.18,5-5.14s3.86-3.67,5.24-4.88c.69-.61,1.25-1.09,1.65-1.41A3.17,3.17,0,0,1,404.07,104.51Z" style="fill:#e0e0e0"></path><g style="opacity:0.30000000000000004"><path d="M390,135.51a.39.39,0,0,0,0-.77.39.39,0,0,0,0,.77Z" style="fill:#ebebeb"></path></g><g style="opacity:0.30000000000000004"><path d="M389,132.17a.39.39,0,0,0,0-.77.39.39,0,0,0,0,.77Z" style="fill:#ebebeb"></path></g><g style="opacity:0.30000000000000004"><path d="M387,135.53a.39.39,0,0,0,0-.77.39.39,0,0,0,0,.77Z" style="fill:#ebebeb"></path></g><g style="opacity:0.30000000000000004"><path d="M386.47,130.65a.39.39,0,0,0,0-.77.39.39,0,0,0,0,.77Z" style="fill:#ebebeb"></path></g><g style="opacity:0.30000000000000004"><path d="M389.9,127.36a.39.39,0,0,0,0-.77.39.39,0,0,0,0,.77Z" style="fill:#ebebeb"></path></g><g style="opacity:0.30000000000000004"><path d="M392.1,130a.39.39,0,0,0,0-.77.39.39,0,0,0,0,.77Z" style="fill:#ebebeb"></path></g><g style="opacity:0.30000000000000004"><path d="M387.77,140.29a.39.39,0,0,0,0-.77.39.39,0,0,0,0,.77Z" style="fill:#ebebeb"></path></g><g style="opacity:0.30000000000000004"><path d="M387.33,126.56a.39.39,0,0,0,0-.77.39.39,0,0,0,0,.77Z" style="fill:#ebebeb"></path></g><g style="opacity:0.30000000000000004"><path d="M421.72,130a29.73,29.73,0,0,0-.41-3,15,15,0,0,0-8.87-10.68c-1.71-.72-2.86-.9-2.85-1a3.38,3.38,0,0,1,.81.11,13.12,13.12,0,0,1,2.13.64,14.55,14.55,0,0,1,9,10.85,12.56,12.56,0,0,1,.23,2.2A3.11,3.11,0,0,1,421.72,130Z" style="fill:#fff"></path></g><g style="opacity:0.30000000000000004"><path d="M421.17,135.68c-.08-.06.26-.61.44-1.36s.15-1.4.24-1.42a2,2,0,0,1,.08,1.49C421.73,135.22,421.23,135.74,421.17,135.68Z" style="fill:#fff"></path></g><path d="M423.49,90.56a4.23,4.23,0,1,1-4.23-4.23A4.23,4.23,0,0,1,423.49,90.56Z" style="fill:#e0e0e0"></path><ellipse cx="247.73" cy="422.38" rx="218.97" ry="41.94" style="fill:#ebebeb"></ellipse><path d="M443.12,423a6.79,6.79,0,0,0-.42-2.07,11.46,11.46,0,0,0-3.88-4.78c-4.32-3.41-11.88-6.66-21.89-9.57-20.06-5.81-50-10.5-87.23-13.46a1138.2,1138.2,0,0,0-131-2.28c-24.65,1-50.51,2.77-77.14,6.25a405.69,405.69,0,0,0-40.29,7.15,154.11,154.11,0,0,0-20,6.07A53.94,53.94,0,0,0,51.84,415a19,19,0,0,0-4,3.37,9.58,9.58,0,0,0-1.43,2.15,6.61,6.61,0,0,0-.58,2.47,6.68,6.68,0,0,0,.56,2.48,9.58,9.58,0,0,0,1.43,2.15,19.06,19.06,0,0,0,4,3.38,53.29,53.29,0,0,0,9.41,4.69,153.78,153.78,0,0,0,20,6.07,402.56,402.56,0,0,0,40.3,7.16c26.63,3.48,52.5,5.24,77.15,6.25a1138.33,1138.33,0,0,0,131-2.28c37.2-3,67.17-7.66,87.23-13.46,10-2.91,17.56-6.16,21.88-9.57a11.46,11.46,0,0,0,3.88-4.78,6.79,6.79,0,0,0,.42-2.07s0,.18,0,.54a3.12,3.12,0,0,1-.1.66,4.2,4.2,0,0,1-.25.89,8.4,8.4,0,0,1-1.28,2.28,16,16,0,0,1-2.58,2.56c-4.33,3.46-11.89,6.74-21.9,9.68-20.06,5.88-50,10.63-87.25,13.63a1132.21,1132.21,0,0,1-131.09,2.4c-24.66-1-50.55-2.75-77.2-6.22a401.73,401.73,0,0,1-40.35-7.17A154.8,154.8,0,0,1,61,436.18a54,54,0,0,1-9.5-4.75,19.61,19.61,0,0,1-4.1-3.47,10,10,0,0,1-1.5-2.28,6.15,6.15,0,0,1,0-5.38A10.2,10.2,0,0,1,47.45,418a19.36,19.36,0,0,1,4.1-3.46,55,55,0,0,1,9.5-4.74,154.66,154.66,0,0,1,20.07-6.08,404.52,404.52,0,0,1,40.35-7.16c26.64-3.47,52.52-5.23,77.18-6.22a1134.53,1134.53,0,0,1,131.08,2.39c37.21,3,67.19,7.76,87.26,13.64,10,2.94,17.57,6.22,21.89,9.68a15.72,15.72,0,0,1,2.59,2.56,8.4,8.4,0,0,1,1.28,2.28,4.2,4.2,0,0,1,.25.89,3.12,3.12,0,0,1,.1.66C443.12,422.83,443.12,423,443.12,423Z" style="fill:#fff"></path><path d="M416.09,422.38a5.1,5.1,0,0,0-.45-1.72,9.81,9.81,0,0,0-3.72-3.66c-3.93-2.53-10.48-4.85-19.06-7-17.21-4.22-42.68-7.64-74.26-9.79s-69.32-3-111.16-1.64c-20.91.73-42.86,2-65.49,4.56-11.31,1.29-22.8,2.87-34.32,5.2a151.3,151.3,0,0,0-17.17,4.42,52.78,52.78,0,0,0-8.24,3.41,18.79,18.79,0,0,0-3.66,2.5,4.38,4.38,0,0,0,0,7.35,18.5,18.5,0,0,0,3.66,2.5A51.12,51.12,0,0,0,90.44,432a151.3,151.3,0,0,0,17.17,4.42c11.53,2.33,23,3.92,34.33,5.21,22.64,2.54,44.59,3.83,65.5,4.56,41.85,1.39,79.58.47,111.17-1.65s57.05-5.56,74.25-9.78c8.58-2.11,15.13-4.44,19.06-7a9.88,9.88,0,0,0,3.72-3.66,5.07,5.07,0,0,0,.45-1.73l0,.46a4,4,0,0,1-.38,1.3,9.76,9.76,0,0,1-3.71,3.72c-3.93,2.56-10.48,4.92-19.06,7.07-17.21,4.28-42.69,7.76-74.28,9.95a1112.07,1112.07,0,0,1-111.2,1.76c-20.93-.72-42.89-2-65.55-4.53-11.32-1.29-22.82-2.88-34.37-5.21a153,153,0,0,1-17.24-4.43A52.76,52.76,0,0,1,82,429a19.09,19.09,0,0,1-3.77-2.58,4.89,4.89,0,0,1,0-8.12A19.18,19.18,0,0,1,82,415.74a53.27,53.27,0,0,1,8.32-3.45,153.43,153.43,0,0,1,17.23-4.43c11.54-2.33,23.05-3.91,34.36-5.2,22.66-2.53,44.61-3.81,65.54-4.53,41.85-1.36,79.6-.41,111.2,1.76s57.07,5.67,74.27,9.95c8.59,2.14,15.14,4.5,19.07,7.07a9.76,9.76,0,0,1,3.71,3.72,4,4,0,0,1,.38,1.3Z" style="fill:#fff"></path><rect x="43.23" y="271.33" width="46.82" height="46.49" style="fill:#ebebeb"></rect><rect x="63.68" y="271.33" width="46.82" height="46.49" style="fill:#f5f5f5"></rect><path d="M77.26,295.18c0-6,4.59-10.26,10.77-10.26a10.23,10.23,0,0,1,8.16,3.52l-2.94,2.72a6.41,6.41,0,0,0-5-2.33,6.35,6.35,0,0,0,0,12.7,6.34,6.34,0,0,0,5-2.35l2.94,2.72A10.17,10.17,0,0,1,88,305.44C81.85,305.44,77.26,301.16,77.26,295.18Z" style="fill:#fff"></path><path d="M63.47,302.63c.07.1-4.4,3.57-10,7.76s-10.18,7.52-10.25,7.43,4.41-3.56,10-7.76S63.4,302.54,63.47,302.63Z" style="fill:#e0e0e0"></path><path d="M63.47,289.25c.07.09-4.4,3.56-10,7.76s-10.18,7.52-10.25,7.43,4.41-3.57,10-7.76S63.4,289.16,63.47,289.25Z" style="fill:#e0e0e0"></path><path d="M63.47,275.86c.07.09-4.4,3.57-10,7.76s-10.18,7.52-10.25,7.43,4.41-3.56,10-7.76S63.4,275.77,63.47,275.86Z" style="fill:#e0e0e0"></path><path d="M51.68,271.33a34.41,34.41,0,0,1-4.1,3.33,34.16,34.16,0,0,1-4.35,3,33.72,33.72,0,0,1,4.1-3.34A33.41,33.41,0,0,1,51.68,271.33Z" style="fill:#e0e0e0"></path><rect x="69.79" y="224.37" width="47.29" height="46.95" style="fill:#ebebeb"></rect><rect x="90.44" y="224.37" width="47.29" height="46.95" style="fill:#f5f5f5"></rect><path d="M118.61,254.19H109.3l-1.77,4.29h-4.75l8.93-20h4.58l9,20h-4.87Zm-1.46-3.52L114,243l-3.18,7.67Z" style="fill:#fff"></path><path d="M90.23,256c.07.09-4.45,3.6-10.1,7.83s-10.27,7.6-10.34,7.51,4.45-3.6,10.1-7.84S90.16,255.9,90.23,256Z" style="fill:#e0e0e0"></path><path d="M90.23,242.47c.07.09-4.45,3.6-10.1,7.83s-10.27,7.6-10.34,7.51,4.45-3.6,10.1-7.84S90.16,242.38,90.23,242.47Z" style="fill:#e0e0e0"></path><path d="M90.23,229c.07.09-4.45,3.6-10.1,7.84s-10.27,7.59-10.34,7.5,4.45-3.6,10.1-7.83S90.16,228.86,90.23,229Z" style="fill:#e0e0e0"></path><path d="M78.32,224.37a35.11,35.11,0,0,1-4.14,3.37,33,33,0,0,1-4.39,3,35.69,35.69,0,0,1,4.14-3.36A35,35,0,0,1,78.32,224.37Z" style="fill:#e0e0e0"></path><rect x="50.29" y="317.82" width="46.82" height="46.49" style="fill:#ebebeb"></rect><rect x="70.73" y="317.82" width="46.82" height="46.49" style="fill:#f5f5f5"></rect><path d="M103.76,346.19c0,3.42-2.72,5.41-7.94,5.41H85.56V331.76h9.69c5,0,7.52,2.07,7.52,5.16a4.76,4.76,0,0,1-2.64,4.36A4.91,4.91,0,0,1,103.76,346.19Zm-13.63-11v4.67h4.56c2.24,0,3.46-.79,3.46-2.35s-1.22-2.32-3.46-2.32Zm9,10.48c0-1.67-1.28-2.46-3.66-2.46H90.13v4.9h5.35C97.86,348.14,99.14,347.4,99.14,345.7Z" style="fill:#fff"></path><path d="M70.53,349.13c.06.09-4.41,3.57-10,7.76s-10.17,7.52-10.24,7.43,4.4-3.57,10-7.76S70.46,349,70.53,349.13Z" style="fill:#e0e0e0"></path><path d="M70.53,335.75c.06.09-4.41,3.56-10,7.75S50.36,351,50.29,350.93s4.4-3.56,10-7.76S70.46,335.65,70.53,335.75Z" style="fill:#e0e0e0"></path><path d="M70.53,322.36c.06.09-4.41,3.57-10,7.76s-10.17,7.52-10.24,7.43,4.4-3.57,10-7.76S70.46,322.27,70.53,322.36Z" style="fill:#e0e0e0"></path><path d="M58.73,317.82a32.2,32.2,0,0,1-4.09,3.34,34.21,34.21,0,0,1-4.35,3,33.43,33.43,0,0,1,4.1-3.33A35.36,35.36,0,0,1,58.73,317.82Z" style="fill:#e0e0e0"></path></g><g id="freepik--Floor--inject-17"><path d="M464.91,363.7c0,.15-98.54.26-220,.26s-220.07-.11-220.07-.26,98.51-.26,220.07-.26S464.91,363.56,464.91,363.7Z" style="fill:#263238"></path></g><g id="freepik--speech-bubble-2--inject-17"><circle cx="323.05" cy="89.89" r="27.85" style="fill:#fff"></circle><path d="M295.2,89.89s0-.16,0-.46,0-.76,0-1.32l0-1c0-.36.1-.75.15-1.17a19.88,19.88,0,0,1,.55-2.9,26.14,26.14,0,0,1,3-7.47A28,28,0,0,1,332.62,63.5a28.2,28.2,0,0,1,3.67,1.61c.59.32,1.16.69,1.75,1a13.79,13.79,0,0,1,1.7,1.16A32.44,32.44,0,0,1,342.93,70a32,32,0,0,1,2.76,3.25,27.13,27.13,0,0,1,4,7.74,29.91,29.91,0,0,1,1.46,8.87,30.23,30.23,0,0,1-1.45,8.87,27.21,27.21,0,0,1-4,7.75,32,32,0,0,1-2.76,3.25,30.09,30.09,0,0,1-3.19,2.71,13.79,13.79,0,0,1-1.7,1.16c-.58.35-1.15.73-1.75,1a29.55,29.55,0,0,1-3.67,1.6,27.87,27.87,0,0,1-26.53-4.1,27.82,27.82,0,0,1-7.08-8,26.14,26.14,0,0,1-3-7.47,19.88,19.88,0,0,1-.55-2.9c-.05-.42-.12-.81-.15-1.17s0-.68,0-1c0-.56,0-1,0-1.32s0-.45,0-.45a3.88,3.88,0,0,1,.05.45c0,.32.06.76.09,1.32,0,.29,0,.61.07,1s.11.74.18,1.16a20,20,0,0,0,.58,2.87,27,27,0,0,0,3.09,7.37,27.64,27.64,0,0,0,33.2,11.79,28.58,28.58,0,0,0,3.6-1.59c.58-.31,1.14-.68,1.72-1a13.62,13.62,0,0,0,1.66-1.15,31.55,31.55,0,0,0,3.14-2.66,33.32,33.32,0,0,0,2.7-3.2,26.7,26.7,0,0,0,3.94-7.61,27.21,27.21,0,0,0,0-17.41,26.83,26.83,0,0,0-3.94-7.61,32,32,0,0,0-2.71-3.2,30.35,30.35,0,0,0-3.13-2.66,14.44,14.44,0,0,0-1.66-1.15c-.58-.34-1.14-.71-1.72-1a28.58,28.58,0,0,0-3.6-1.59,27.69,27.69,0,0,0-33.2,11.79,27,27,0,0,0-3.09,7.37,20,20,0,0,0-.58,2.87c-.07.42-.15.81-.18,1.16s-.05.68-.07,1c0,.57-.07,1-.09,1.33A4.33,4.33,0,0,1,295.2,89.89Z" style="fill:#263238"></path><circle cx="298.71" cy="115.55" r="3.51" style="fill:#fff"></circle><path d="M295.2,115.55a1.77,1.77,0,0,1,0-.88,3.53,3.53,0,0,1,1.27-2A3.66,3.66,0,0,1,300,112a3.73,3.73,0,0,1,0,7,3.68,3.68,0,0,1-3.51-.58,3.55,3.55,0,0,1-1.27-2.06,1.79,1.79,0,0,1,0-.88c.05,0,.05.31.21.83a3.57,3.57,0,0,0,1.29,1.82,3.36,3.36,0,0,0,3.13.42,3.28,3.28,0,0,0,0-6.14,3.36,3.36,0,0,0-3.13.43,3.55,3.55,0,0,0-1.29,1.81C295.25,115.24,295.25,115.55,295.2,115.55Z" style="fill:#263238"></path><circle cx="312.18" cy="90.57" r="3.39" style="fill:#263238"></circle><circle cx="323.99" cy="90.57" r="3.39" style="fill:#263238"></circle><circle cx="335.8" cy="90.57" r="3.39" style="fill:#263238"></circle></g><g id="freepik--speech-bubble-1--inject-17"><circle cx="77.11" cy="290.39" r="27.85" style="fill:#fff"></circle><path d="M105,290.39a3.88,3.88,0,0,1,0-.45q0-.48-.09-1.32c0-.29,0-.62-.06-1s-.12-.75-.18-1.17a21.5,21.5,0,0,0-.59-2.86,26.43,26.43,0,0,0-3.09-7.38,27.7,27.7,0,0,0-7.05-7.84,27.39,27.39,0,0,0-11.64-5.15,27.72,27.72,0,0,0-14.51,1.21A28.51,28.51,0,0,0,64.1,266c-.58.32-1.14.69-1.72,1a15.37,15.37,0,0,0-1.66,1.15,25.38,25.38,0,0,0-5.84,5.86,26.77,26.77,0,0,0-3.94,7.6,27.42,27.42,0,0,0,0,17.42,26.9,26.9,0,0,0,3.94,7.6,30.94,30.94,0,0,0,2.71,3.2,29.15,29.15,0,0,0,3.13,2.66,13.29,13.29,0,0,0,1.66,1.15c.58.35,1.14.71,1.72,1a28.51,28.51,0,0,0,3.6,1.58,27.83,27.83,0,0,0,14.51,1.22,27.85,27.85,0,0,0,18.69-13,26.5,26.5,0,0,0,3.09-7.37,21.61,21.61,0,0,0,.59-2.87c.06-.42.14-.81.18-1.17s0-.68.06-1q.06-.84.09-1.32a3.88,3.88,0,0,1,0-.45s0,.15,0,.45,0,.76,0,1.33l0,1c0,.36-.1.75-.16,1.17a20,20,0,0,1-.54,2.9,26.49,26.49,0,0,1-3,7.47A28.09,28.09,0,0,1,82.29,318a28.19,28.19,0,0,1-14.75-1.18,31.2,31.2,0,0,1-3.67-1.61c-.59-.32-1.16-.69-1.75-1a13.87,13.87,0,0,1-1.7-1.17,25.5,25.5,0,0,1-6-6,27.13,27.13,0,0,1-4-7.74A29.58,29.58,0,0,1,49,290.39a29.9,29.9,0,0,1,1.45-8.87,27.38,27.38,0,0,1,4-7.74,25.5,25.5,0,0,1,6-6,15.08,15.08,0,0,1,1.7-1.17c.59-.35,1.16-.72,1.75-1a29.55,29.55,0,0,1,3.67-1.6,27.87,27.87,0,0,1,26.53,4.1,27.79,27.79,0,0,1,7.08,8,26.54,26.54,0,0,1,3,7.48,19.88,19.88,0,0,1,.54,2.89c.06.43.12.82.16,1.17l0,1c0,.57,0,1,0,1.33S105,290.39,105,290.39Z" style="fill:#263238"></path><path d="M64,292A9,9,0,0,1,66.07,284a7.77,7.77,0,0,1,3.68-2.3A6.43,6.43,0,0,1,76.48,284a.59.59,0,0,0,1,0,6.27,6.27,0,0,1,1.37-1.4,6.56,6.56,0,0,1,5-1.19,7.94,7.94,0,0,1,3.86,2,9.06,9.06,0,0,1,2.73,7.88,9.46,9.46,0,0,1-1,3.2,14.31,14.31,0,0,1-4.73,4.81C82,301,78.72,303,77.68,303.68a.57.57,0,0,1-.65,0c-1-.65-4-2.63-6.66-4.12a14.23,14.23,0,0,1-5.11-4.41A9.21,9.21,0,0,1,64,292Z" style="fill:#FF725E"></path><circle cx="101.45" cy="316.06" r="3.51" style="fill:#fff"></circle><path d="M105,316.06s0-.31-.21-.83a3.49,3.49,0,0,0-1.29-1.81,3.28,3.28,0,1,0,0,5.28,3.49,3.49,0,0,0,1.29-1.81c.16-.52.16-.83.21-.83a1.77,1.77,0,0,1,0,.88,3.51,3.51,0,0,1-1.26,2.05,3.68,3.68,0,0,1-3.52.59,3.73,3.73,0,0,1,0-7,3.68,3.68,0,0,1,3.51.58,3.5,3.5,0,0,1,1.27,2.06A1.79,1.79,0,0,1,105,316.06Z" style="fill:#263238"></path></g><g id="freepik--character-3--inject-17"><polygon points="393.05 374.37 406.86 366.52 414.77 384.21 396.92 391.52 389.04 380.19 393.05 374.37" style="fill:#455a64"></polygon><path d="M399.52,391.82l-1.4.42s-.38,21.16-5.37,22.9l-14.18-36.25,14.24-4.82C392,380.6,394.15,386.66,399.52,391.82Z" style="fill:#FF725E"></path><path d="M378.57,378.89l3.42-1.16,12.6,35.6s-.82,1.52-1.84,1.81Z" style="fill:#e0e0e0"></path><path d="M392.9,393.68s.26-.24.77-.41a4.87,4.87,0,0,1,2.1-.19,4.14,4.14,0,0,1,1.87.68c.41.29.57.54.53.58a10.46,10.46,0,0,0-2.51-.84A12.52,12.52,0,0,0,392.9,393.68Z" style="fill:#fff"></path><path d="M392.63,391.58a4.38,4.38,0,0,1,2.88-.43,3.49,3.49,0,0,1,2.49,1.11,24.08,24.08,0,0,0-2.6-.69A25.41,25.41,0,0,0,392.63,391.58Z" style="fill:#fff"></path><path d="M393,396.89a3.4,3.4,0,0,1,2.24-1,3,3,0,0,1,2.34.36c0,.12-1-.12-2.31.07S393.08,397,393,396.89Z" style="fill:#fff"></path><path d="M397.8,394.56s.3-.56,1.18-1.13a10.13,10.13,0,0,1,1.62-.82c.32-.13.65-.25,1-.37a3.33,3.33,0,0,1,.58-.18.86.86,0,0,1,.72.16.54.54,0,0,1,.06.72,1.59,1.59,0,0,1-.46.44,5.73,5.73,0,0,1-1,.53,6.15,6.15,0,0,1-1.78.49,2.94,2.94,0,0,1-1.64-.11c0-.07.63,0,1.61-.18a7.56,7.56,0,0,0,1.63-.54,6,6,0,0,0,.87-.51c.28-.18.45-.45.32-.52s-.46-.05-.81.08l-1,.35a11.8,11.8,0,0,0-1.6.71C398.27,394.15,397.86,394.6,397.8,394.56Z" style="fill:#fff"></path><path d="M398,394.76s-.09,0-.22-.13l-.1-.09.16,0a6,6,0,0,1,1.87.05,6.77,6.77,0,0,1,1.37.38,6.38,6.38,0,0,1,.71.33,1.5,1.5,0,0,1,.37.28.59.59,0,0,1,.11.54.69.69,0,0,1-.66.42,1.89,1.89,0,0,1-.56-.06,5.79,5.79,0,0,1-2.34-1c-.7-.55-.94-1-.89-1.06s.4.36,1.12.82a5.75,5.75,0,0,0,1.36.65,5.66,5.66,0,0,0,.88.22c.32.08.65.05.63,0s-.56-.51-.95-.69a8.19,8.19,0,0,0-1.27-.42,11,11,0,0,0-1.76-.25l.07-.11C398,394.68,398,394.75,398,394.76Z" style="fill:#fff"></path><path d="M453.83,328.27c.83,0,10.78,7.63,7.74,20.15-1.34,5.54-10.93,14.05-21.22,21.84-13,9.84-27.11,18.51-27.11,18.51L398.52,367l20.39-15.68-2.75-5.51Z" style="fill:#263238"></path><polygon points="436.72 362.24 449.57 370.95 442.87 387.41 425.46 381.93 425.46 379.83 436.72 362.24" style="fill:#455a64"></polygon><path d="M447.88,368.76l1.24.91s18.09-13,22.69-9.85l-21.68,34.74-13-9C443.11,382.12,446.9,376.53,447.88,368.76Z" style="fill:#FF725E"></path><path d="M450.13,394.56,447,392.4l22.13-33a4.26,4.26,0,0,1,2.68.41Z" style="fill:#e0e0e0"></path><path d="M453.61,373.17c0,.05-.36-.06-.84-.39a5.15,5.15,0,0,1-1.47-1.65,4.45,4.45,0,0,1-.6-2c0-.52.09-.82.15-.8a11.72,11.72,0,0,0,.87,2.64A12.83,12.83,0,0,0,453.61,373.17Z" style="fill:#fff"></path><path d="M452,374.72a4.52,4.52,0,0,1-2.17-2.16,3.76,3.76,0,0,1-.64-2.8,27.67,27.67,0,0,0,1.06,2.63A26.85,26.85,0,0,0,452,374.72Z" style="fill:#fff"></path><path d="M456.25,371.07A3.6,3.6,0,0,1,454,369.8a3.28,3.28,0,0,1-1.17-2.2c.14,0,.56,1,1.51,1.91S456.29,370.94,456.25,371.07Z" style="fill:#fff"></path><path d="M451.27,368.49a3,3,0,0,1-1.69-.29,9.76,9.76,0,0,1-1.71-.86c-.31-.18-.62-.39-.94-.6a3.77,3.77,0,0,1-.52-.38.92.92,0,0,1-.31-.71.57.57,0,0,1,.57-.5,1.76,1.76,0,0,1,.66.11,6.32,6.32,0,0,1,1.05.48,6.61,6.61,0,0,1,1.53,1.19,3.14,3.14,0,0,1,.94,1.46c-.07,0-.4-.54-1.17-1.24a6.85,6.85,0,0,0-1.48-1,6,6,0,0,0-1-.42c-.33-.12-.67-.1-.65.06s.25.41.59.63l.91.62a12.52,12.52,0,0,0,1.6.9C450.63,368.34,451.27,368.41,451.27,368.49Z" style="fill:#fff"></path><path d="M451.31,368.17s0,.09,0,.27v.14l-.13-.12a6.2,6.2,0,0,1-1.13-1.6,7.16,7.16,0,0,1-.54-1.4c-.07-.26-.12-.53-.17-.81a1.56,1.56,0,0,1,0-.48.6.6,0,0,1,.38-.44.73.73,0,0,1,.77.29,2.09,2.09,0,0,1,.31.52,6.66,6.66,0,0,1,.36,1,5.24,5.24,0,0,1,.22,1.66,2.32,2.32,0,0,1-.33,1.42c-.08,0,.05-.57,0-1.46a6.33,6.33,0,0,0-.31-1.55,5.93,5.93,0,0,0-.36-.89c-.14-.32-.36-.58-.43-.51-.27.06-.08.8,0,1.24a8.28,8.28,0,0,0,.45,1.33,10.44,10.44,0,0,0,.89,1.64l-.14,0C451.24,368.24,451.28,368.16,451.31,368.17Z" style="fill:#fff"></path><path d="M381.46,227.52a31.31,31.31,0,0,0-10.11-20.63l.67-.3A13.07,13.07,0,0,0,355,211.35c-1.33,2.34-1.87,5-2.75,7.58s-2.23,5.11-4.58,6.42c-1.25.7-2.69,1-4,1.62a4,4,0,0,0-2.54,3.2c-.05,1.84,1.79,3.16,3.54,3.7s3.71.7,5.16,1.82a5.74,5.74,0,1,0,5.77,9.93c-1.59,2.81-.43,6.65,2.15,8.59a10,10,0,0,0,9.23,1,18.07,18.07,0,0,0,7.59-5.8A31.32,31.32,0,0,0,381.46,227.52Z" style="fill:#263238"></path><path d="M424.73,218.54c0-2.22-1.75-4.12-3.79-5a17.06,17.06,0,0,0-6.53-1c1.23-2.68,2.49-5.45,2.57-8.4s-1.29-6.16-4-7.3c-2.34-1-5.05-.26-7.34.84s-4.45,2.58-6.93,3.15c-6.44,1.5-12.7-3.4-19.32-3.48-6.78-.08-13.86,6.23-14.31,13,9.81,6.31,19.71,12.68,27.88,21,4.42,4.49,9.05,9.9,15.34,10.21a10.94,10.94,0,0,0,10-16.45C421.26,223.83,424.73,221.81,424.73,218.54Z" style="fill:#263238"></path><path d="M411,231.14c1.15-8.74-6.44-19.18-15.22-20L366.86,211l3.94,5-9.48,56.28h0s-6.15,20.2,9.7,22.22c14.24,1.82,16.39-13.18,16.39-13.18l1.71-10.92s11.44,1.78,16.56-12.15C408.22,251.3,409.71,240.84,411,231.14Z" style="fill:#ffbf9d"></path><path d="M404.85,243.86a1.89,1.89,0,0,1-2.15,1.51,1.8,1.8,0,0,1-1.57-2,1.88,1.88,0,0,1,2.14-1.51A1.81,1.81,0,0,1,404.85,243.86Z" style="fill:#263238"></path><path d="M407,238.29c-.27.19-1.47-1.12-3.45-1.5s-3.64.32-3.81,0c-.08-.13.24-.52,1-.85a5.14,5.14,0,0,1,3.11-.33,4.94,4.94,0,0,1,2.69,1.5C407,237.73,407.09,238.2,407,238.29Z" style="fill:#263238"></path><path d="M388.49,241.31a1.87,1.87,0,0,1-2.14,1.51,1.79,1.79,0,0,1-1.57-2,1.87,1.87,0,0,1,2.14-1.51A1.8,1.8,0,0,1,388.49,241.31Z" style="fill:#263238"></path><path d="M388.63,235c-.28.19-1.47-1.12-3.46-1.5s-3.63.32-3.8,0c-.08-.13.23-.52,1-.85a5.12,5.12,0,0,1,3.1-.33,4.87,4.87,0,0,1,2.69,1.5C388.64,234.44,388.76,234.91,388.63,235Z" style="fill:#263238"></path><path d="M391.76,250.59a14.9,14.9,0,0,1,3.33.12c.51,0,1,.06,1.16-.22a2,2,0,0,0-.08-1.34l-.83-3.55c-.32-1.29-1.72-8.52-1.62-9.17.24,0,1.35,4,2.48,9.08.26,1.24.52,2.42.76,3.55a2.21,2.21,0,0,1-.08,1.74,1.35,1.35,0,0,1-1,.47,3.87,3.87,0,0,1-.88-.07A16.43,16.43,0,0,1,391.76,250.59Z" style="fill:#263238"></path><path d="M389.12,270.38A36.54,36.54,0,0,1,371,261.54s2.94,11,17.6,12.51Z" style="fill:#ff9a6c"></path><path d="M390.66,227.26c-.35.57-2-.23-4.06-.49s-3.93,0-4-.65c0-.3.42-.79,1.24-1.2a5.82,5.82,0,0,1,3.28-.5,5.29,5.29,0,0,1,2.89,1.36C390.59,226.39,390.82,227,390.66,227.26Z" style="fill:#263238"></path><path d="M408.39,230.4c-.43.5-1.82-.24-3.56-.48s-3.27,0-3.54-.63c-.12-.3.18-.81.89-1.24a4.56,4.56,0,0,1,3-.53A4.61,4.61,0,0,1,407.9,229C408.45,229.58,408.59,230.16,408.39,230.4Z" style="fill:#263238"></path><path d="M411.36,222.74c-1.62-5.43-5.88-9.84-10.92-12.42A35.19,35.19,0,0,0,384,206.93a105.32,105.32,0,0,0-16.86,2c-1.35.24-2.83.55-3.66,1.64a5.47,5.47,0,0,0-.86,2.63q-1.74,11.67-3.46,23.32l1.11,5.14c2.48.54,5-.85,7-2.41a35.09,35.09,0,0,0,13.1-22.43,11.44,11.44,0,0,1,.68,3.61,3.9,3.9,0,0,0,1.74,3.11c1.84.92,3.93-.95,4.64-2.89s.82-4.17,2.16-5.74a23.44,23.44,0,0,0,6.2,8.54c1.27,1.09,3,2.09,4.52,1.34a3.18,3.18,0,0,0,1.51-3,9.47,9.47,0,0,0-1-3.38,18.43,18.43,0,0,0,7.79,7.13,2.56,2.56,0,0,0,2.25.26C411.77,225.3,411.69,223.83,411.36,222.74Z" style="fill:#263238"></path><path d="M368.52,235.93c-.2-.14-8.34-4.29-9.72,4.56s7.77,8.41,7.83,8.16S368.52,235.93,368.52,235.93Z" style="fill:#ffbf9d"></path><path d="M364.45,244.87s-.17.09-.45.17a1.61,1.61,0,0,1-1.15-.16c-.88-.49-1.44-2.1-1.23-3.7a5,5,0,0,1,.78-2.14,1.81,1.81,0,0,1,1.34-1,.8.8,0,0,1,.85.57c.08.26,0,.43,0,.45s.21-.11.2-.49a1,1,0,0,0-.27-.61,1.16,1.16,0,0,0-.81-.36,2.2,2.2,0,0,0-1.83,1.12,5.31,5.31,0,0,0-.92,2.38c-.22,1.79.43,3.6,1.65,4.17a1.67,1.67,0,0,0,1.45,0C364.4,245.09,364.48,244.89,364.45,244.87Z" style="fill:#ff9a6c"></path><path d="M378.7,215.42a2.25,2.25,0,0,1-.28.48c-.2.31-.5.75-.93,1.3a28,28,0,0,1-4,4.25,31.06,31.06,0,0,1-3.24,2.44c-.62.39-1.25.79-1.95,1.16a4.25,4.25,0,0,1-2.39.58,2.68,2.68,0,0,1-2.1-1.54,5,5,0,0,1-.43-2.67c.25-1.87,1.38-3.42,1.91-5.17a6.14,6.14,0,0,0,.17-.68l.38.23-4.32,3.2-2.05,1.52a4.89,4.89,0,0,1-2.27,1.08,1.78,1.78,0,0,1-1.26-.35,2.1,2.1,0,0,1-.69-1,5.4,5.4,0,0,1-.1-2.25,15.33,15.33,0,0,1,.92-3.84,15.56,15.56,0,0,1,2.94-4.86,13.66,13.66,0,0,1,1.09-1.09,2.34,2.34,0,0,1,.43-.33s-.53.52-1.38,1.54a16.19,16.19,0,0,0-2.77,4.85,15.94,15.94,0,0,0-.85,3.77,5,5,0,0,0,.11,2.08,1.42,1.42,0,0,0,1.52,1.09,4.69,4.69,0,0,0,2.06-1l2-1.52,4.3-3.2.5-.37-.12.6c-.05.23-.11.48-.19.73-.57,1.84-1.68,3.39-1.9,5.08a4.4,4.4,0,0,0,.38,2.42A2.21,2.21,0,0,0,366,225.2a4,4,0,0,0,2.16-.52c.67-.35,1.31-.74,1.92-1.12a31.06,31.06,0,0,0,7.32-6.48c.44-.52.77-.94,1-1.23A2.54,2.54,0,0,1,378.7,215.42Z" style="fill:#455a64"></path><path d="M389.86,253.26a30.45,30.45,0,0,0-3.6-2.7,2.12,2.12,0,0,0-1.34-.46,1.65,1.65,0,0,0-1.08.73,3.61,3.61,0,1,0,6.43,2.86Z" style="fill:#ff9a6c"></path><path d="M387.1,256.57s-.2.16-.64.21a2.92,2.92,0,0,1-1.8-.41,3.29,3.29,0,0,1-1.57-2.26,4.23,4.23,0,0,1,.81-3.26,2.58,2.58,0,0,1,1.48-1.07,2.18,2.18,0,0,1,1.64.51c.8.63,1.45,1.24,2,1.74a11.66,11.66,0,0,1,1.75,1.72,11.66,11.66,0,0,1-2-1.43c-.59-.46-1.28-1.06-2.06-1.64a1.73,1.73,0,0,0-1.27-.4,2.19,2.19,0,0,0-1.17.89,3.89,3.89,0,0,0-.75,2.86,3.08,3.08,0,0,0,2.89,2.55A4.65,4.65,0,0,1,387.1,256.57Z" style="fill:#263238"></path><path d="M401.14,280a37.15,37.15,0,0,1,9.51,13.27c3.74,8.64,7.2,24.46,7.2,24.46l-66.8,43.55-10.53,3.92s-3.73-2.54-4-10.56-1.88-34.88-1.88-36.61-.65-22.86,1.88-31.3c2.25-7.51,4.32-10.27,11.11-14.28,4.46-2.62,14.72-6,14.72-6s10.21,7.11,18.72,9.74c6.82,2.11,7.7-3.23,7.7-3.23Z" style="fill:#FF725E"></path><path d="M340.52,365.18s24.36-26.8,39-30,28.22,10.25,31.91,12c4.65,2.24,31.11,17.66,31.11,17.66l-12.22,21-39.47-12.17s-9.64,16.08-21.05,16.17c-1.68,0,.41,0-1.55-.09-13.62-.53-23.29-9.05-27.06-22.16Z" style="fill:#263238"></path><polygon points="373.4 319.56 389.04 314.93 391.07 328.27 374.16 335.8 373.4 319.56" style="fill:#ffbf9d"></polygon><path d="M361.87,287s0,.2,0,.57l.09,1.67c.05,1.47.1,3.63.08,6.41,0,5.57-.29,13.62-1,23.53l-.19-.21,12.47-.12h.22v.21c.24,5.15.52,10.8.8,16.73v.11l-.08.07a55.4,55.4,0,0,1-6.45,5.57,35.65,35.65,0,0,1-7.7,4.45,21.44,21.44,0,0,1-9.09,1.4,15.11,15.11,0,0,1-8.87-3.17,9.21,9.21,0,0,1-2.88-4.19c-.26-.8-.49-1.6-.68-2.41s-.35-1.62-.47-2.43c-.56-3.25-.85-6.47-1.11-9.63-.49-6.33-.68-12.44-.77-18.27,0-2.91-.05-5.76,0-8.52a43.44,43.44,0,0,1,.76-8,33,33,0,0,1,5.34-13.36,11.11,11.11,0,0,1,5-3.88,8.56,8.56,0,0,1,5.58.45,13.9,13.9,0,0,1,6.79,5.75,14.76,14.76,0,0,1,2,5.31,11.18,11.18,0,0,1,.17,2s0-.68-.27-1.95a15.29,15.29,0,0,0-2-5.23,13.78,13.78,0,0,0-6.72-5.58,8.2,8.2,0,0,0-5.38-.4,10.64,10.64,0,0,0-4.76,3.79c-2.6,3.52-4.25,8.16-5.22,13.21s-.71,10.63-.69,16.44.3,11.93.8,18.24c.26,3.15.56,6.37,1.11,9.58.12.81.31,1.6.47,2.4s.41,1.59.66,2.36a8.7,8.7,0,0,0,2.72,4,14.69,14.69,0,0,0,8.57,3.06,21.26,21.26,0,0,0,8.88-1.36,35.36,35.36,0,0,0,7.58-4.39,55.36,55.36,0,0,0,6.41-5.49l-.07.18c-.27-5.94-.53-11.58-.76-16.74l.22.21-12.48.07h-.21l0-.21c.74-9.89,1.06-17.94,1.16-23.5.05-2.78,0-4.94,0-6.41,0-.71,0-1.27,0-1.67A5,5,0,0,1,361.87,287Z" style="fill:#263238"></path><path d="M401.27,309.4a11.28,11.28,0,0,1-.06-2.51c.05-1.55.16-3.69.37-6.05s.48-4.48.72-6a11.08,11.08,0,0,1,.5-2.46,12.4,12.4,0,0,1-.14,2.51l-.56,6c-.19,2.25-.37,4.29-.52,6A12.55,12.55,0,0,1,401.27,309.4Z" style="fill:#263238"></path><path d="M354.43,326.87a13.66,13.66,0,0,1,6.71-7.81c.09.13-1.87,1.41-3.72,3.59S354.58,326.94,354.43,326.87Z" style="fill:#263238"></path><path d="M412.25,347.18a2.68,2.68,0,0,1,.6.29l1.69.9,6.34,3.49L443,364.17l.22.11-.13.22L431.71,384l-1.15,2-.11.18-.19-.06L391,374.12h0a24.86,24.86,0,0,1-8.35-6.4,17.88,17.88,0,0,1-2.18-3.1l.15.2.42.59c.38.51.94,1.28,1.75,2.19a25.36,25.36,0,0,0,8.36,6.22h0l39.35,11.77-.3.12,1.15-2c4-6.91,7.9-13.49,11.4-19.47l.09.33-22-12.47-6.27-3.6-1.66-1A6.19,6.19,0,0,1,412.25,347.18Z" style="fill:#455a64"></path><polygon points="462.88 329.55 463.67 322.22 468.49 318.06 481.57 310.02 491.51 305.95 492 306.62 463.67 330.51 462.88 329.55" style="fill:#e0e0e0"></polygon><path d="M442.93,316.16s11.88-8.49,21.38-9.23,17.29,1.76,17.89,3.43-1.56,2.32-3.55,2.41a36.57,36.57,0,0,1-6.48-.93l-5.12,6.59-10.39,4.64-12.12-1.3Z" style="fill:#ffbf9d"></path><path d="M419.18,309.79s6.19,2.2,9.31,2.83,16.57,1,24,4.49c4,1.86,8.62,9.41,8.62,9.41l1.49,1.67-3.87,2.94-25.51-2.54-21.8-10.17Z" style="fill:#f5f5f5"></path><path d="M491.51,305.38l-1.13-1-38.47,17.28,8.51,9.14L464,329.5a14.8,14.8,0,0,1,0-4.55c.38-2.66,7-7.54,8.81-8.45C475.62,315.08,490.46,307.68,491.51,305.38Z" style="fill:#f5f5f5"></path><path d="M491.63,304.92,464.43,328l-1,.68a2.78,2.78,0,0,1-1.55.48h0a.82.82,0,0,1-.82-.82V327.2a.8.8,0,0,0-.54-.77l-43.14-15.32a.83.83,0,0,0-.6,0l-61,26.4a.82.82,0,0,0,.05,1.52l43.07,15.42a4.3,4.3,0,0,0,3.71,0L463.2,331a1,1,0,0,0,.24-.15l29.24-24.71a.81.81,0,0,0,.07-1.18h0A.8.8,0,0,0,491.63,304.92Z" style="fill:#455a64"></path><path d="M464.79,308.84a21.9,21.9,0,0,0,1.82,2.4s6-.74,7.14.83a2.41,2.41,0,0,1,0,3,11,11,0,0,1-6.89,2.23c-4-.19-7.18,3.61-10.47.83a11.32,11.32,0,0,1-3.81-6.4" style="fill:#ffbf9d"></path><path d="M452.58,311.7s.14.54.51,1.46a11.85,11.85,0,0,0,2.17,3.56,7.87,7.87,0,0,0,2.17,1.8,3.67,3.67,0,0,0,1.48.37,6,6,0,0,0,1.64-.24c1.11-.3,2.24-.83,3.5-1.22a9.55,9.55,0,0,1,2-.4c.71,0,1.36,0,2,0a10.82,10.82,0,0,0,5.55-2.13l0,0a2.26,2.26,0,0,0,.47-1.36,2.36,2.36,0,0,0-.46-1.31,2.18,2.18,0,0,0-1.15-.64,8.85,8.85,0,0,0-1.33-.24,25.92,25.92,0,0,0-4.47,0h-.08l0-.05a9.1,9.1,0,0,1-1.71-2.49s.64.87,1.92,2.31l-.12,0a22.53,22.53,0,0,1,4.54-.17,7.92,7.92,0,0,1,1.41.22,2.6,2.6,0,0,1,1.4.79,2.76,2.76,0,0,1,.57,1.58,2.79,2.79,0,0,1-.57,1.68v0h0a11.16,11.16,0,0,1-5.83,2.27c-.7.07-1.4,0-2,0a9.85,9.85,0,0,0-1.87.38c-1.21.37-2.34.89-3.52,1.2a6.28,6.28,0,0,1-1.77.23,4.17,4.17,0,0,1-1.66-.44,8.26,8.26,0,0,1-2.26-2,11,11,0,0,1-2.08-3.73A4.31,4.31,0,0,1,452.58,311.7Z" style="fill:#ff9a6c"></path><path d="M417.85,311.28s.09-.16.3-.42l1-1.14,0-.05.06,0c1.87.54,5,1.52,9,2.55,2,.52,4.24.85,6.64,1.26l7.61,1.21,5.15.8a23.76,23.76,0,0,1,4.73,1.25,13.71,13.71,0,0,1,6.56,4.94,23.75,23.75,0,0,1,2.52,5c.23.56.41,1,.56,1.39a1.8,1.8,0,0,1,.17.5,2.7,2.7,0,0,1-.26-.45c-.16-.31-.38-.77-.65-1.36a27.42,27.42,0,0,0-2.64-4.82,13.57,13.57,0,0,0-6.43-4.71c-2.84-1.14-6.26-1.39-9.79-2L434.76,314c-2.39-.43-4.66-.78-6.67-1.33-4-1.1-7.1-2.15-8.94-2.78l.11,0-1,1.07A2.41,2.41,0,0,1,417.85,311.28Z" style="fill:#263238"></path><g style="opacity:0.30000000000000004"><polygon points="416.53 341.57 447 330.82 414.77 319.06 386.83 331.13 416.53 341.57" style="fill:#fff"></polygon></g><path d="M400.21,310.12s3.63-3.3,5.06-2.95,4.78,3.35,5.27,5.18-.79,3.22-2.1,3-4.05-2.84-4.05-2.84l-3,1.77s4.73,5.53,4.73,7.65-1.1,3.65-3.19,3.06a2.64,2.64,0,0,1-1.54,2.68c-3.4,1.86-6.48-.79-6.48-.79s-.66,1.86-3.3,1.34a9.57,9.57,0,0,1-4.62-2.74,4.46,4.46,0,0,1-1.76-3.43c-.11-2.36,0-5.3,0-5.3l9.24-4.36A6.81,6.81,0,0,1,400.21,310.12Z" style="fill:#ffbf9d"></path><path d="M389.16,322.42a12.92,12.92,0,0,1,5.6,4.49,358.62,358.62,0,0,1-5.6-4.49Z" style="fill:#ff9a6c"></path><path d="M397.82,317.15a10.61,10.61,0,0,1,3.26,3.42,10.78,10.78,0,0,1,1.95,4.31c-.15.05-.94-1.9-2.38-4S397.71,317.26,397.82,317.15Z" style="fill:#ff9a6c"></path><path d="M401.42,327.63a21.38,21.38,0,0,1-4.7-4.14,21.08,21.08,0,0,1-3.71-5c.13-.08,1.78,2.17,4.1,4.69S401.52,327.51,401.42,327.63Z" style="fill:#ff9a6c"></path></g><g id="freepik--character-2--inject-17"><rect x="207.56" y="286.3" width="115.16" height="27.98" style="fill:#455a64"></rect><rect x="204.26" y="314.28" width="115.16" height="27.39" style="fill:#455a64"></rect><rect x="180.27" y="341.67" width="134.33" height="22.03" style="fill:#455a64"></rect><rect x="299.89" y="291.08" width="22.83" height="17.22" style="fill:#fff"></rect><path d="M229.79,307.27a3.24,3.24,0,0,1,.21-1.42.92.92,0,0,1,.88-.37c.48,0,.72.08.72.25a70.82,70.82,0,0,1,2.46-7.05q2.31-6.07,2.56-6.12a11.41,11.41,0,0,1,1.8-.12,15,15,0,0,1,1.6.12,46.2,46.2,0,0,1,2.56,6.16,73.08,73.08,0,0,1,2.46,7c0-.17.24-.25.72-.25a.93.93,0,0,1,.88.37,3.28,3.28,0,0,1,.2,1.42c0,.78-.08,1.22-.25,1.31s-1.4.27-3.61.27c-1.59,0-2.38-.08-2.38-.25q-.51-.3-.51-2a3.53,3.53,0,0,1,0-.39.5.5,0,0,1,.19-.27.65.65,0,0,1,.46-.14c.45,0,.67,0,.67.09s.09-.08.09-.23a12.67,12.67,0,0,0-.62-2.7q-.94.09-2.52.09t-2.64-.09a13.16,13.16,0,0,0-.62,2.72q0,.18.09.21a1.27,1.27,0,0,1,.6-.09.74.74,0,0,1,.52.16.57.57,0,0,1,.2.32c0,.11,0,.28,0,.53q0,1.51-.51,1.83c0,.17-.79.25-2.38.25-2.21,0-3.41-.09-3.61-.27S229.79,308.05,229.79,307.27Zm6.78-7.12c.59,0,1.15-.07,1.69-.07a16.45,16.45,0,0,1,1.78.1q-1-3.12-1.73-4.83Q237.67,297,236.57,300.15Z" style="fill:#fff"></path><path d="M248.14,307.31a6.65,6.65,0,0,1,0-.73,1,1,0,0,1,.31-.53,1.13,1.13,0,0,1,.82-.27l.3.05c-.13-1.46-.19-2.84-.19-4.15a50.54,50.54,0,0,1,.3-6.05,8.21,8.21,0,0,1-1.25-.12,3.67,3.67,0,0,1-.13-1.37,5.92,5.92,0,0,1,.07-1.33,4.76,4.76,0,0,1,2.78-.56c.42,0,1,0,1.61.09a3.22,3.22,0,0,1,.09.89,7.6,7.6,0,0,1,1.68-.67,7.13,7.13,0,0,1,1.87-.28,3.71,3.71,0,0,1,3,1.44,5,5,0,0,1,1.2,3.26,5,5,0,0,1-1.7,3.81,4.37,4.37,0,0,1,2.07,3.89,4.58,4.58,0,0,1-1.13,3.09,3.52,3.52,0,0,1-2.75,1.32c-2.32,0-3.83-.32-4.52-1,0,.4-.11.65-.32.73a5.22,5.22,0,0,1-1.52.13,9.79,9.79,0,0,1-2.44-.28A6.68,6.68,0,0,1,248.14,307.31Zm4.6-8.3c0,.1.43.23,1.27.4a10.82,10.82,0,0,0,1.68.25A1.55,1.55,0,0,0,257,299a2.7,2.7,0,0,0,.51-1.67,4.47,4.47,0,0,0-.36-1.81,1.21,1.21,0,0,0-1.16-.82,7.71,7.71,0,0,0-1.88.32c-.79.22-1.18.43-1.2.64a5.55,5.55,0,0,0,0,.65c0,.28,0,.68,0,1.2S252.76,298.51,252.74,299Zm0,7.05c0,.1.43.23,1.27.39a12.29,12.29,0,0,0,1.68.25A1.58,1.58,0,0,0,257,306a2.62,2.62,0,0,0,.51-1.63,4.23,4.23,0,0,0-.36-1.76,1.22,1.22,0,0,0-1.16-.8,7.71,7.71,0,0,0-1.88.32c-.79.21-1.18.42-1.2.62a5.29,5.29,0,0,0,0,.63c0,.27,0,.66,0,1.16S252.76,305.58,252.74,306.06Z" style="fill:#fff"></path><path d="M263.09,300.79a9.91,9.91,0,0,1,1.81-6.05,5.71,5.71,0,0,1,4.83-2.46,4.45,4.45,0,0,1,3.23,1c0-.47.2-.75.49-.86a3.51,3.51,0,0,1,1.41-.26,2.78,2.78,0,0,1,1.71.47c0,.17.05.44.11.8s.09.69.13,1a8.15,8.15,0,0,1,0,.82,2.88,2.88,0,0,1-.83,2.22,2.07,2.07,0,0,1-1.6.54,2.44,2.44,0,0,1-1.73-.54.48.48,0,0,1,0-.22.74.74,0,0,1,.07-.37,2.73,2.73,0,0,0-1.27-1.35,3.38,3.38,0,0,0-1.6-.47,3.12,3.12,0,0,0-2.48,1.75,7.13,7.13,0,0,0-1.15,4,5.28,5.28,0,0,0,1.08,3.46,3.13,3.13,0,0,0,2.49,1.33,4.57,4.57,0,0,0,1.59-.33,2.64,2.64,0,0,0,1.3-.92c-.05-.28-.07-.43-.07-.46a.31.31,0,0,1,0-.1.2.2,0,0,0,0-.07,3.74,3.74,0,0,1,1.51-.4,6,6,0,0,1,1.89.47,2.77,2.77,0,0,1,.83,2.18,6.24,6.24,0,0,1-.05.83c0,.31-.09.64-.14,1s-.09.63-.11.82a2.81,2.81,0,0,1-1.85.59,1.91,1.91,0,0,1-1.27-.38.86.86,0,0,1-.49-.91,5.4,5.4,0,0,1-3.1,1.05,6,6,0,0,1-2.4-.51,7.46,7.46,0,0,1-2.18-1.5,7.12,7.12,0,0,1-1.59-2.59A10.22,10.22,0,0,1,263.09,300.79Z" style="fill:#fff"></path><g style="opacity:0.30000000000000004"><rect x="295.19" y="286.3" width="27.51" height="27.98"></rect></g><path d="M322.71,295.08c0,.15-5.12.26-11.42.26s-11.42-.11-11.42-.26,5.11-.26,11.42-.26S322.71,294.94,322.71,295.08Z" style="fill:#263238"></path><path d="M322.71,299.68c0,.15-5.12.26-11.42.26s-11.42-.11-11.42-.26,5.11-.26,11.42-.26S322.71,299.54,322.71,299.68Z" style="fill:#263238"></path><path d="M322.71,304.29c0,.14-5.12.26-11.42.26s-11.42-.12-11.42-.26S305,304,311.29,304,322.71,304.14,322.71,304.29Z" style="fill:#263238"></path><rect x="291.77" y="345.43" width="22.83" height="13.56" style="fill:#fff"></rect><g style="opacity:0.30000000000000004"><rect x="287.08" y="341.67" width="27.51" height="22.03"></rect></g><path d="M314.59,348.59c0,.14-5.11.26-11.42.26s-11.41-.12-11.41-.26,5.11-.26,11.41-.26S314.59,348.44,314.59,348.59Z" style="fill:#263238"></path><path d="M314.59,352.21c0,.14-5.11.26-11.42.26s-11.41-.12-11.41-.26,5.11-.26,11.41-.26S314.59,352.07,314.59,352.21Z" style="fill:#263238"></path><path d="M314.59,355.83c0,.15-5.11.26-11.42.26s-11.41-.11-11.41-.26,5.11-.26,11.41-.26S314.59,355.69,314.59,355.83Z" style="fill:#263238"></path><path d="M323.16,314.15c0,.14-25.91.26-57.87.26s-57.89-.12-57.89-.26,25.91-.26,57.89-.26S323.16,314,323.16,314.15Z" style="fill:#263238"></path><path d="M319.42,341.67c0,.15-25.93.26-57.89.26s-57.9-.11-57.9-.26,25.92-.26,57.9-.26S319.42,341.53,319.42,341.67Z" style="fill:#263238"></path><rect x="204.26" y="319.56" width="110.33" height="15.68" style="fill:#fafafa"></rect><g style="opacity:0.30000000000000004"><rect x="288.37" y="314.29" width="31.05" height="27.39"></rect></g><path d="M314,327.4c0,.14-24.61.26-55,.26s-55-.12-55-.26,24.61-.26,55-.26S314,327.25,314,327.4Z" style="fill:#263238"></path><polygon points="273.97 322.99 273.97 330.31 276.76 328.36 279.55 330.31 279.55 322.99 273.97 322.99" style="fill:#FF725E"></polygon><path d="M314,323c0,.14-24.61.26-55,.26s-55-.12-55-.26,24.61-.26,55-.26S314,322.84,314,323Z" style="fill:#263238"></path><path d="M314,331.8c0,.15-24.61.26-55,.26s-55-.11-55-.26,24.61-.26,55-.26S314,331.66,314,331.8Z" style="fill:#263238"></path><path d="M273.47,357.05s0-.2,0-.57,0-.93,0-1.63c0-1.44,0-3.53-.07-6.24l.11.1c-14.28.09-46.23.16-83.32.16h0l.26-.26h0v8.43l-.26-.26,59.12.11L267,357l4.81,0,1.25,0,.44,0a2.78,2.78,0,0,1-.4,0l-1.22,0-4.75,0-17.64.08-59.31.11h-.26v-8.69h0l.26-.26h0c37.09,0,69,.06,83.32.15h.11v.11c0,2.73-.05,4.85-.06,6.31,0,.69,0,1.22,0,1.6A5.12,5.12,0,0,1,273.47,357.05Z" style="fill:#263238"></path><polygon points="219.32 327.45 218.91 322.18 239.46 321.38 238.27 327.87 231.26 331.36 224.32 331.71 219.32 327.45" style="fill:#455a64"></polygon><polygon points="199.26 327.45 198.85 322.18 219.4 321.38 218.21 327.87 211.21 331.36 204.26 331.71 199.26 327.45" style="fill:#455a64"></polygon><path d="M199,325.28v1.41s-20.8,8.5-20.59,14.05l41,0-.74-15.8C212.53,328.21,206.11,328.56,199,325.28Z" style="fill:#FF725E"></path><path d="M219.37,340.76l-.18-3.8-39.7,1.29a4.31,4.31,0,0,0-1.08,2.49Z" style="fill:#e0e0e0"></path><path d="M199.38,332.37c.05,0,.14-.33.11-.91a5.36,5.36,0,0,0-.61-2.12,4.53,4.53,0,0,0-1.39-1.58c-.44-.28-.75-.35-.77-.29a10.79,10.79,0,0,1,1.78,2.13A12.65,12.65,0,0,1,199.38,332.37Z" style="fill:#fff"></path><path d="M201.55,331.84a4.69,4.69,0,0,0-.69-3c-.82-1.52-2-2.14-2-2a26.26,26.26,0,0,1,1.67,2.29C201.25,330.5,201.41,331.86,201.55,331.84Z" style="fill:#fff"></path><path d="M196.2,333.5a3.55,3.55,0,0,0,.12-2.57c-.34-1.45-1.18-2.27-1.25-2.16s.52,1,.82,2.29S196.07,333.47,196.2,333.5Z" style="fill:#fff"></path><path d="M196.64,327.91a2.9,2.9,0,0,0,.66-1.58,10.51,10.51,0,0,0,.18-1.91c0-.36,0-.73,0-1.12a4,4,0,0,0-.06-.64A.9.9,0,0,0,197,322a.59.59,0,0,0-.73.22,1.62,1.62,0,0,0-.25.62,5.85,5.85,0,0,0-.15,1.15,6.62,6.62,0,0,0,.2,1.93,3.19,3.19,0,0,0,.74,1.56c.06,0-.24-.62-.44-1.65a7.34,7.34,0,0,1-.1-1.81,6.62,6.62,0,0,1,.17-1c.07-.34.27-.61.38-.51s.23.43.23.82l0,1.11a12.84,12.84,0,0,1-.08,1.84C196.86,327.29,196.58,327.87,196.64,327.91Z" style="fill:#fff"></path><path d="M196.36,327.77s.06.08.22.17l.12.07,0-.17a6.22,6.22,0,0,0-.76-1.81,7.08,7.08,0,0,0-.9-1.2q-.27-.29-.6-.57A1.36,1.36,0,0,0,194,324a.6.6,0,0,0-.57.09.75.75,0,0,0-.17.81,2.58,2.58,0,0,0,.28.53,6.06,6.06,0,0,0,.62.82,5.4,5.4,0,0,0,1.29,1.07c.81.47,1.38.53,1.39.47s-.51-.26-1.24-.78a6.34,6.34,0,0,1-1.15-1.09,6.63,6.63,0,0,1-.56-.77c-.2-.29-.3-.62-.2-.64.19-.19.71.36,1,.67a8.31,8.31,0,0,1,.89,1.08,11.82,11.82,0,0,1,.92,1.63l.09-.11C196.45,327.75,196.36,327.75,196.36,327.77Z" style="fill:#fff"></path><path d="M220.47,325.37l.12,1.53s-20.59,8.48-20.38,14l41,0-.74-15.8C234.33,328.4,227.58,328.66,220.47,325.37Z" style="fill:#FF725E"></path><path d="M241.17,341l-.18-3.8-39.71,1.29a4.33,4.33,0,0,0-1.07,2.49Z" style="fill:#e0e0e0"></path><path d="M221.18,332.57s.14-.34.11-.92a5.23,5.23,0,0,0-.62-2.12,4.53,4.53,0,0,0-1.39-1.58c-.43-.28-.74-.35-.76-.29a10.68,10.68,0,0,1,1.78,2.14A12.48,12.48,0,0,1,221.18,332.57Z" style="fill:#fff"></path><path d="M223.34,332a4.57,4.57,0,0,0-.68-3c-.82-1.51-2-2.14-2-2a26.26,26.26,0,0,1,1.67,2.29A28.66,28.66,0,0,1,223.34,332Z" style="fill:#fff"></path><path d="M218,333.69a3.58,3.58,0,0,0,.11-2.57c-.34-1.45-1.18-2.27-1.25-2.16s.53,1,.83,2.29S217.87,333.66,218,333.69Z" style="fill:#fff"></path><path d="M218.44,328.1a2.9,2.9,0,0,0,.66-1.58,10.42,10.42,0,0,0,.18-1.91c0-.35,0-.73,0-1.12a3,3,0,0,0,0-.64.93.93,0,0,0-.43-.64.59.59,0,0,0-.73.22,1.79,1.79,0,0,0-.26.63,7.58,7.58,0,0,0-.15,1.14,6.55,6.55,0,0,0,.21,1.93,3.25,3.25,0,0,0,.73,1.56c.07,0-.24-.62-.43-1.64a7.4,7.4,0,0,1-.1-1.81,7.85,7.85,0,0,1,.16-1.05c.07-.34.27-.61.39-.51s.23.43.23.83l0,1.1a12.84,12.84,0,0,1-.08,1.84C218.66,327.48,218.38,328.06,218.44,328.1Z" style="fill:#fff"></path><path d="M218.16,328s.06.09.22.17l.12.07,0-.17a6.64,6.64,0,0,0-.76-1.81,7.76,7.76,0,0,0-.9-1.19,8.28,8.28,0,0,0-.6-.58,1.36,1.36,0,0,0-.41-.25.58.58,0,0,0-.57.1.73.73,0,0,0-.17.8,2.58,2.58,0,0,0,.28.53,5.33,5.33,0,0,0,.62.82,5.4,5.4,0,0,0,1.29,1.07c.81.47,1.38.53,1.38.47s-.5-.26-1.23-.78a6,6,0,0,1-1.15-1.09,5.64,5.64,0,0,1-.56-.77c-.2-.29-.3-.62-.2-.64.19-.19.71.36,1,.67a8.31,8.31,0,0,1,.89,1.08,11.82,11.82,0,0,1,.92,1.63l.09-.11C218.25,327.94,218.16,327.94,218.16,328Z" style="fill:#fff"></path><path d="M219.26,326.71a3.55,3.55,0,0,1-.85.52c-.57.29-1.4.71-2.43,1.21-2.06,1-4.94,2.32-8,4s-5.74,3.38-7.2,5.11a10.78,10.78,0,0,0-1.82,3.14,2.51,2.51,0,0,1,.2-1,7.75,7.75,0,0,1,1.34-2.4c1.45-1.86,4.16-3.65,7.23-5.33s6-2.94,8.08-3.86l2.5-1.06A4.09,4.09,0,0,1,219.26,326.71Z" style="fill:#263238"></path><path d="M307.21,167.58q-2.16-8.39-4.34-16.77c-2.2-8.47-5.06-20-9.95-27.08-7.22-10.46-24-13-35.67-9.22-10.62,3.48-15.84,7.67-18.64,19.07s.1,29.52,2.68,41c.37,1.63.82,3.37,2,4.47s3.07,1.34,4.74,1.47l24.32,1.86,13.42-5.17a34.23,34.23,0,0,0,18.35-2.8,5.63,5.63,0,0,0,3.28-2.86A6.73,6.73,0,0,0,307.21,167.58Z" style="fill:#263238"></path><path d="M242.39,138.46c.06-8.78,8.75-18,17.29-17.45l17,2.48a13.15,13.15,0,0,1,11.1,12.73l-2.19,10.11,2.15,41.36,1.43.44s-1.32,18.92-16.83,18.59c-13.93-.29-11.57-17.35-11.57-17.35l-.42-10.88s-13.8-.1-16.87-14.57C242,156.72,242.34,148.21,242.39,138.46Z" style="fill:#ffbf9d"></path><path d="M246.67,152.36a1.86,1.86,0,0,0,1.86,1.8,1.74,1.74,0,0,0,1.78-1.77,1.87,1.87,0,0,0-1.86-1.81A1.75,1.75,0,0,0,246.67,152.36Z" style="fill:#263238"></path><path d="M245.31,146.43c.23.21,1.36-.83,3.1-1s3.11.69,3.27.46-.16-.49-.75-.88a4.45,4.45,0,0,0-2.65-.64,4.16,4.16,0,0,0-2.44,1C245.35,145.93,245.21,146.34,245.31,146.43Z" style="fill:#263238"></path><path d="M262.8,151.71a1.86,1.86,0,0,0,1.86,1.8,1.74,1.74,0,0,0,1.78-1.77,1.87,1.87,0,0,0-1.86-1.81A1.75,1.75,0,0,0,262.8,151.71Z" style="fill:#263238"></path><path d="M263.22,145.07c.22.2,1.35-.84,3.09-1s3.11.7,3.28.46-.16-.49-.76-.87a4.3,4.3,0,0,0-2.64-.64,4,4,0,0,0-2.44,1C263.25,144.56,263.11,145,263.22,145.07Z" style="fill:#263238"></path><path d="M258.28,159.14a16,16,0,0,0-3.22-.33c-.5,0-1-.09-1.08-.35s0-.72.25-1.19c.41-1,.83-2,1.28-3.07a81.62,81.62,0,0,0,2.78-8c-.22-.06-1.83,3.44-3.59,7.8-.43,1.08-.83,2.11-1.21,3.09a1.86,1.86,0,0,0-.16,1.56,1.29,1.29,0,0,0,.87.55,4.4,4.4,0,0,0,.85.06A15.84,15.84,0,0,0,258.28,159.14Z" style="fill:#263238"></path><path d="M260.29,178.52A35.21,35.21,0,0,0,279,172.39s-4.18,10.63-18.47,10Z" style="fill:#ff9a6c"></path><path d="M262.43,140.1c.26.61,1.92.07,4,.11s3.78.56,4-.05c.08-.29-.28-.84-1-1.36a5.61,5.61,0,0,0-3.09-1,4.94,4.94,0,0,0-3,.92C262.62,139.26,262.32,139.81,262.43,140.1Z" style="fill:#263238"></path><path d="M244.4,140.2c.35.55,1.78,0,3.49,0s3.15.45,3.49-.11c.15-.27-.07-.82-.7-1.34a4.47,4.47,0,0,0-5.62.05C244.45,139.38,244.24,139.93,244.4,140.2Z" style="fill:#263238"></path><path d="M289.21,141.58a29.88,29.88,0,0,0-.87-8.27,17.92,17.92,0,0,0-6.07-9.2c-2.2-1.72-5.62-3.91-8.32-4.46-4.25-.86-6.45-1.85-14.35,0-3.34.81-3.89.32-6.89,2L250.62,123c2.33,6,22.66,18.5,29.64,20.49a49.39,49.39,0,0,0,1.38,6,4.49,4.49,0,0,0,1.57,2.45,3.2,3.2,0,0,0,3.44-.13,4.39,4.39,0,0,0,1.69-2.6A20.28,20.28,0,0,0,289.21,141.58Z" style="fill:#263238"></path><path d="M285.93,147.08s8.28-3.76,8.44,5.16-8.6,7.15-8.62,6.9S285.93,147.08,285.93,147.08Z" style="fill:#ffbf9d"></path><path d="M288.35,155.74s.15.1.41.22a1.48,1.48,0,0,0,1.13,0c.91-.36,1.66-1.86,1.67-3.47a5.27,5.27,0,0,0-.46-2.22,1.8,1.8,0,0,0-1.16-1.18.77.77,0,0,0-.89.43c-.11.25-.05.43-.1.45s-.18-.15-.12-.52a1,1,0,0,1,.33-.56,1.11,1.11,0,0,1,.83-.24A2.19,2.19,0,0,1,291.6,150a5.39,5.39,0,0,1,.57,2.48c0,1.8-.89,3.49-2.14,3.87a1.59,1.59,0,0,1-1.39-.22C288.37,156,288.32,155.75,288.35,155.74Z" style="fill:#ff9a6c"></path><path d="M259.6,163.38c0,.07.41.25,1.14.22a4.28,4.28,0,0,0,2.59-1.08,4.22,4.22,0,0,0,1.33-2.47c.11-.72,0-1.16-.1-1.16s-.14.43-.34,1.05a4.87,4.87,0,0,1-1.32,2.1,4.92,4.92,0,0,1-2.22,1.11C260,163.29,259.62,163.28,259.6,163.38Z" style="fill:#263238"></path><path d="M276.2,139.69a59.05,59.05,0,0,1,4,38.78,18,18,0,0,1,4.46-.83,5.35,5.35,0,0,0,3.89-2.07,6.37,6.37,0,0,0,.53-3.87,201.86,201.86,0,0,0-4.93-31.3" style="fill:#263238"></path><path d="M284.66,177.64a3.87,3.87,0,0,1,0-.75c.05-.54.1-1.24.17-2.13.18-1.9.42-4.55.72-7.81a68.07,68.07,0,0,0-.7-11.56c-.54-4.34-1.28-9.1-2.16-14.07l-.29-1.58.19.2a49.89,49.89,0,0,1-12.66-5.3,74.61,74.61,0,0,1-9.15-6.36c-2.46-2-4.37-3.67-5.67-4.86-.66-.59-1.15-1.06-1.48-1.38s-.51-.49-.49-.51a4.25,4.25,0,0,1,.55.44l1.55,1.31c1.34,1.13,3.28,2.78,5.77,4.72a78,78,0,0,0,9.16,6.23,50.17,50.17,0,0,0,12.55,5.2l.16,0,0,.16.29,1.59c.89,5,1.61,9.75,2.13,14.1a66.77,66.77,0,0,1,.59,11.65c-.37,3.26-.67,5.91-.89,7.81-.11.88-.2,1.58-.26,2.12A4,4,0,0,1,284.66,177.64Z" style="fill:#455a64"></path><path d="M287,138.82a1.63,1.63,0,0,0-1.28-.69,4.73,4.73,0,0,0-1.49.19,22.07,22.07,0,0,0-6.6,2.32,1.32,1.32,0,0,0-.51,2.05,1.34,1.34,0,0,0,1,.52,4,4,0,0,0,1.19-.18l5.13-1.32a4.86,4.86,0,0,0,2-.88A1.65,1.65,0,0,0,287,138.82Z" style="fill:#FF725E"></path><g style="opacity:0.30000000000000004"><path d="M270.11,154.87a2.89,2.89,0,0,0-1.74-.71,5.86,5.86,0,0,0-1.45.24,2.06,2.06,0,0,0-1.16.86,1.25,1.25,0,0,0,.05,1.39,1.79,1.79,0,0,0,1,.52,5.5,5.5,0,0,0,1.94.05,2,2,0,0,0,1.51-.83A1.22,1.22,0,0,0,270.11,154.87Z" style="fill:#ff9a6c"></path></g><path d="M305.75,250.12c0,1-25.46,4.18-38.6-.59-12.76-4.64-22.55-7.94-22.55-7.94l-11.31,10.49,15,.4,4.69,2c-9.19-.54-19.05-1.07-22.8-1.08-12.84,0-18.88,10.46-18.88,19s4,52.37,4,52.37h24.2a106.24,106.24,0,0,0,2.89-20.69c.4-11.51.27-15.93.27-15.93l28.32.53h4.44c5-.22,13.13-.63,16-1.1,7.36-1.19,12.55-7.25,15.18-14.85S305.75,250.12,305.75,250.12Z" style="fill:#263238"></path><path d="M199,324.82s-3.66-44.31-3.66-52.88,6-19.06,18.88-19c7.77,0,41.72,2.26,41.72,2.26l3.53,33.29-36.27-.6s.4,5,0,16.53c-.4,11.21,0,20.43,0,20.43Z" style="fill:#263238"></path><path d="M218.3,257.39a12.24,12.24,0,0,0-2.27,1.52,12.5,12.5,0,0,0-3.67,6.33c-.82,3.05-.72,6.85-.54,11s.4,8.78.73,13.61c.68,9.65,1.53,18.37,2,24.7.26,3.16.45,5.72.56,7.49q.07,1.26.12,2a3.22,3.22,0,0,1,0,.71,5.79,5.79,0,0,1-.11-.7c0-.52-.12-1.19-.21-2-.18-1.83-.42-4.37-.73-7.48-.6-6.31-1.51-15-2.19-24.7-.33-4.83-.56-9.43-.69-13.63s-.22-8,.66-11.13a12.4,12.4,0,0,1,3.9-6.39,8.63,8.63,0,0,1,1.73-1.12A2.61,2.61,0,0,1,218.3,257.39Z" style="fill:#455a64"></path><path d="M239.05,280.26a11.81,11.81,0,0,1,2.68,4.23,11.66,11.66,0,0,1,1.2,4.86c-.15,0-.6-2.15-1.68-4.66S238.93,280.35,239.05,280.26Z" style="fill:#455a64"></path><path d="M248.13,187.24s-4.88.87-6.78,8.37c-.93,3.68-4.37,28.23-4.37,28.23L203,230.79l5.62,10.72s36.75-5.22,46.47-8.35S248.13,187.24,248.13,187.24Z" style="fill:#FF725E"></path><path d="M305.8,191.37c-3.23-4.17-18-9.84-18-9.84-15.61,7.44-22.71,6.49-27.53,1.81,0,0-9.9,1.86-14,5l2.43,50.84c-.17.12-10.82,6.29-10.82,6.29l-7.27,6.18,76.83,10.66c2.46-1.69,2.17-4.68.19-7.8,0,0-2.66-15.73-2.74-24.11C304.82,217.62,311,198,305.8,191.37Z" style="fill:#FF725E"></path><g style="opacity:0.30000000000000004"><path d="M265,252.18a58.93,58.93,0,0,0,34.84-3c2.46-1,4.59-1.92,6.43-3.85l-.76-6.43S268,241,268.1,241.54s-6.27,3.18-6.27,3.18l-3.18,4.67Z"></path></g><polygon points="180.03 199.5 175.7 201.9 186.74 218.44 185.81 221.76 190.44 225.65 193.45 221.37 264.12 255.5 265.28 251.85 222.57 206.96 191.26 215.9 180.03 199.5" style="fill:#fff"></polygon><path d="M180,199.49a3.25,3.25,0,0,1,.2.26l.57.81,2.21,3.16,8.37,12.09-.16-.05,31.29-9,.12,0,.09.1,42.75,44.86.1.11-.05.15c-.35,1.12-.74,2.34-1.12,3.56l0,.09-.09.29-.27-.13-70.64-34.2.24-.06-3,4.28-.12.16-.15-.13-4.61-3.9-.09-.07,0-.1c.35-1.23.64-2.29.93-3.32l0,.13-11-16.59,0-.06.06,0L179,200l.8-.42.25-.13-.26.17-.79.45L175.73,202l0-.1,11.11,16.49,0,.06,0,.07c-.29,1-.58,2.1-.91,3.33l-.06-.18,4.64,3.88-.27,0,3-4.29.09-.14.15.07,70.69,34.08-.36.15,0-.08,1.13-3.57.06.26-42.68-44.92.22.06L191.3,216l-.1,0-.06-.08-8.2-12.12-2.16-3.23-.56-.84Z" style="fill:#263238"></path><path d="M221,211.88l-30.19,7.92s-1.23,2.82-2.53,2.73a1.32,1.32,0,0,1-1.69-1,3.61,3.61,0,0,1,.85-2.68L174.93,199.9l-1.17.66L186,219.13a3.82,3.82,0,0,0,.5,4.51C188.44,226,219,255.92,219,255.92c2.2.88,4.22,1,6,0l41.09-.25Z" style="fill:#455a64"></path><path d="M290,208.19l-2.47,20.73-31.92,6.61,9.06,13.58c10.54,0,26.68-.87,35.05-3.32,6.63-1.94,7.82-7.78,8.87-14.61,1.64-10.71,1.82-20.11,2-21.4.57-5.08-1.26-13.6-2.86-15.9-3.66-5.27-5.44-5.89-10.36-8.28" style="fill:#FF725E"></path><path d="M297.29,185.6s.15.05.42.17l1.2.55a24.44,24.44,0,0,1,4.43,2.52,16,16,0,0,1,2.63,2.59c.44.52.87,1.08,1.3,1.67a9.15,9.15,0,0,1,1.17,2,37.1,37.1,0,0,1,2.27,10.43,28.09,28.09,0,0,1,.08,3.06c-.07,1.05-.16,2.08-.2,3.16q-.15,3.24-.4,6.72c-.35,4.64-.87,9.59-1.74,14.75a24.75,24.75,0,0,1-2.3,7.73,10.49,10.49,0,0,1-2.7,3.24,11.37,11.37,0,0,1-3.85,1.9,97,97,0,0,1-17.43,2.62c-6,.46-11.88.67-17.55.68h-.14l-.07-.11-9.05-13.59-.2-.3.35-.07,31.94-6.55-.13.15c.8-6.5,1.44-11.68,1.89-15.25.22-1.76.4-3.12.52-4.06.07-.45.12-.79.15-1.05a1.79,1.79,0,0,1,.07-.35,2,2,0,0,1,0,.36c0,.25-.06.6-.1,1-.11,1-.25,2.31-.44,4.07-.41,3.58-1,8.76-1.74,15.27v.12l-.12,0-31.91,6.69.15-.37L264.83,249l-.21-.11c5.65,0,11.52-.23,17.51-.69a97.87,97.87,0,0,0,17.33-2.59,10.82,10.82,0,0,0,3.68-1.81,9.78,9.78,0,0,0,2.57-3.08,24.75,24.75,0,0,0,2.27-7.57c.87-5.14,1.41-10.08,1.78-14.7.18-2.32.32-4.55.43-6.71,0-1.07.15-2.15.21-3.16a30,30,0,0,0,0-3,37.33,37.33,0,0,0-2.18-10.35,8.94,8.94,0,0,0-1.12-1.93c-.43-.59-.85-1.15-1.27-1.67a16.55,16.55,0,0,0-2.56-2.59,25,25,0,0,0-4.36-2.58l-1.18-.6Z" style="fill:#263238"></path><path d="M240.89,244.18a1.64,1.64,0,0,1-1.29-2.67,15,15,0,0,1,2-2c2.93-2.55,14-3.84,14-3.84L262.77,247s-.84,2.77-6.22,5.42c-2.43,1.19-8.7,4.63-9.14,4.51a4.9,4.9,0,0,1-1.26-1,1.86,1.86,0,0,1-2.21.1c-1.06-.83-1.67-1.83-.79-2.42s9.84-9.59,9.66-9.58-11.13,9.29-11.65,9-3.8-.86-2-3.29S249,240.3,249,240.3s-6.78,3.78-8,3.87Z" style="fill:#ffbf9d"></path><path d="M247.79,199.46c.14,0,.33,8,.43,17.83s.05,17.84-.09,17.85-.34-8-.43-17.84S247.64,199.46,247.79,199.46Z" style="fill:#263238"></path><path d="M302.37,190.45c0,.09-.94.22-2.38.75a14.86,14.86,0,0,0-5,3.16,14.68,14.68,0,0,0-3.34,4.9c-.59,1.42-.75,2.37-.85,2.35a1.86,1.86,0,0,1,0-.68,9.47,9.47,0,0,1,.46-1.8,13.5,13.5,0,0,1,8.59-8.28,8.7,8.7,0,0,1,1.82-.39C302.13,190.42,302.37,190.41,302.37,190.45Z" style="fill:#263238"></path><path d="M246,230.36c-.4-.1-.93-.15-1.13.21s.07.76.33,1.06l5.3,6.25,5.08-2.23A20,20,0,0,0,246,230.36Z" style="fill:#ffbf9d"></path><path d="M294.76,233.94a20.34,20.34,0,0,0-3.53-3.32,21.43,21.43,0,0,0-4.42-2,9.22,9.22,0,0,1,7.95,5.28Z" style="fill:#263238"></path><path d="M222.77,207a7.68,7.68,0,0,1-.75,2.68,7.55,7.55,0,0,1-1.24,2.5,7.76,7.76,0,0,1,.75-2.69A7.43,7.43,0,0,1,222.77,207Z" style="fill:#263238"></path><path d="M225,255.7a1.93,1.93,0,0,1-.39-.33l-1-1-3.72-3.79c-3.13-3.22-7.42-7.68-12.14-12.64s-9-9.47-12-12.75l-3.61-3.9-1-1.08a2.45,2.45,0,0,1-.31-.4s.15.1.39.33l1,1,3.72,3.79c3.13,3.21,7.42,7.68,12.15,12.64s9,9.47,12,12.75l3.6,3.9,1,1.08A1.88,1.88,0,0,1,225,255.7Z" style="fill:#263238"></path></g><g id="freepik--character-1--inject-17"><path d="M272,379.54c-.15.36-4.8,13.31-4.8,13.31l19.25,6.49,4.72-15.49Z" style="fill:#ebebeb"></path><path d="M290.13,389.32l.24-1.61s23.21-3.82,24.31-9.59l-42.15-9.76-3,16.44C276.58,382.9,283.59,384.25,290.13,389.32Z" style="fill:#FF725E"></path><path d="M272.53,368.36l-.72,3.95L313,380.42s1.55-1.13,1.69-2.3Z" style="fill:#e0e0e0"></path><path d="M291.11,381.74c-.05,0-.22.32-.33.92a5.46,5.46,0,0,0,.13,2.33,4.66,4.66,0,0,0,1,1.95c.38.4.69.54.72.49a12,12,0,0,1-1.32-2.63A13.32,13.32,0,0,1,291.11,381.74Z" style="fill:#fff"></path><path d="M288.75,381.78a4.88,4.88,0,0,0,0,3.23c.48,1.76,1.55,2.69,1.62,2.57a25.18,25.18,0,0,1-1.17-2.75C288.74,383.23,288.89,381.79,288.75,381.78Z" style="fill:#fff"></path><path d="M294.65,381.34a3.75,3.75,0,0,0-.73,2.62,3.46,3.46,0,0,0,.77,2.52c.13-.07-.3-1.13-.3-2.55S294.78,381.4,294.65,381.34Z" style="fill:#fff"></path><path d="M292.87,387c0-.05-.57.41-1.06,1.47a11.09,11.09,0,0,0-.63,1.92c-.09.37-.18.76-.26,1.16a5.33,5.33,0,0,0-.1.67,1,1,0,0,0,.3.76.6.6,0,0,0,.8-.05,1.87,1.87,0,0,0,.41-.58,7,7,0,0,0,.43-1.14,7.12,7.12,0,0,0,.25-2,3.27,3.27,0,0,0-.39-1.78c-.07,0,.1.7.06,1.8a7.93,7.93,0,0,1-.33,1.88,7.07,7.07,0,0,1-.42,1c-.15.33-.42.57-.52.44s-.13-.5,0-.91.15-.77.23-1.15a13.29,13.29,0,0,1,.51-1.87C292.49,387.57,292.92,387,292.87,387Z" style="fill:#fff"></path><path d="M293.13,387.2s-.05-.1-.19-.23l-.11-.1v.19a6.76,6.76,0,0,0,.35,2,7.3,7.3,0,0,0,.65,1.45,7.62,7.62,0,0,0,.48.73,1.53,1.53,0,0,0,.36.36.62.62,0,0,0,.61,0,.76.76,0,0,0,.36-.78,2.32,2.32,0,0,0-.16-.62,6.43,6.43,0,0,0-.44-1,5.78,5.78,0,0,0-1.08-1.41c-.72-.68-1.29-.87-1.31-.81s.46.39,1.08,1.1a6.7,6.7,0,0,1,.94,1.39,7.21,7.21,0,0,1,.38.93c.14.34.17.7.06.7-.24.16-.65-.54-.91-.93a8.73,8.73,0,0,1-.67-1.33A13.67,13.67,0,0,1,293,387l-.11.09C293,387.2,293.11,387.22,293.13,387.2Z" style="fill:#fff"></path><path d="M92.69,405.06c-.12-2.53,1.8-12.05,3.18-15.81s13.9-5.9,16.24-2.91,1.36,4.62,1.36,4.62l-1.14.68s.84,3.55-1.66,3.17c0,0-1.75,3.53-3.25,3.2l-3.11,4.85.54,19.16s-15.24,2.59-15.33,2.28S92.69,405.06,92.69,405.06Z" style="fill:#ae7461"></path><path d="M131.15,393.66a25.76,25.76,0,0,0-10.8,9.12c-4.23,6.27-13.54,20.28-13.54,20.28l-2.54-15.21-12.09,4-3.32,1.09s2.07,24.88,2.54,27.92,5.64,6.93,11,7.74S115.93,441,115.93,441l17.2-20.74Z" style="fill:#FF725E"></path><path d="M276.48,444c.41-1.07,14.23-51.76,14.23-51.76L274.41,390,267,434.57Z" style="fill:#263238"></path><path d="M148.72,329.21A9.66,9.66,0,0,0,156.18,346c3.36-.36,6.72-3.27,6.18-6.6a9,9,0,0,0,6.13,6.52,7.17,7.17,0,0,0,8-3.31c1.44-2.77.28-6.7-2.58-8a11.38,11.38,0,0,0,9-4.46,9.6,9.6,0,0,0,.86-9.89,8.3,8.3,0,0,0-8.76-4.25,9.06,9.06,0,0,0-17.18-5.59,9,9,0,0,0-15.62,8.18,7.23,7.23,0,0,0,5.36,13.21" style="fill:#263238"></path><path d="M160.4,339.45c.85-5.1-.17-6.19-3-8.73a8.24,8.24,0,0,0-9.13-1.35c-.81-3.86-1-6.64-4.72-8.3-3.89-1.76-5.54-1.18-9.67-.14A15.64,15.64,0,0,0,123,319.49a14.46,14.46,0,0,0-8.81,6A12,12,0,0,0,103.6,333c-.7,1.94-.82,4.09-2.06,5.78a10.33,10.33,0,0,0-2,3.93c-.55,2.7-.18,3.93,1.07,6.67.86,1.9,2.58,4.59,1.57,6.41-3.91,7.07,3.15,14.14,5.38,14.54l39.29,10.65a9.55,9.55,0,0,0,9.66,1.19,8,8,0,0,0,4.76-7.81,11.8,11.8,0,0,0,3.95-15.07C169.54,354.83,168.57,345.5,160.4,339.45Z" style="fill:#263238"></path><path d="M107.3,349.64c.06-9.53,9.5-19.5,18.78-18.95l18.51,2.69a14.3,14.3,0,0,1,12.06,13.83l-2.39,11,2.34,44.92,1.55.48s-1.43,20.55-18.27,20.2c-15.13-.32-12.57-18.85-12.57-18.86l-.46-11.81s-15-.11-18.32-15.83C106.88,369.48,107.24,360.23,107.3,349.64Z" style="fill:#ae7461"></path><path d="M112.35,365a2,2,0,0,0,2,2,1.9,1.9,0,0,0,1.94-1.93,2,2,0,0,0-2-2A1.9,1.9,0,0,0,112.35,365Z" style="fill:#263238"></path><path d="M110.48,358.31c.24.22,1.47-.91,3.36-1s3.37.76,3.55.5-.17-.53-.82-.95a4.81,4.81,0,0,0-2.87-.7,4.5,4.5,0,0,0-2.65,1.13C110.51,357.76,110.36,358.21,110.48,358.31Z" style="fill:#263238"></path><path d="M129.47,364a2,2,0,0,0,2,2,1.89,1.89,0,0,0,1.93-1.93,2,2,0,0,0-2-2A1.89,1.89,0,0,0,129.47,364Z" style="fill:#263238"></path><path d="M129.92,356.82c.24.23,1.48-.9,3.37-1s3.37.76,3.55.5c.09-.11-.17-.53-.82-.95a4.83,4.83,0,0,0-2.87-.69,4.35,4.35,0,0,0-2.65,1.13C130,356.27,129.8,356.72,129.92,356.82Z" style="fill:#263238"></path><path d="M124.56,372.11a16.92,16.92,0,0,0-3.49-.36c-.55,0-1.07-.09-1.18-.38s0-.78.27-1.29c.44-1.06.9-2.17,1.39-3.33a89.85,89.85,0,0,0,3-8.7c-.24-.06-2,3.74-3.9,8.48l-1.32,3.35a2,2,0,0,0-.16,1.7,1.37,1.37,0,0,0,.93.59,4.58,4.58,0,0,0,.93.07A18,18,0,0,0,124.56,372.11Z" style="fill:#263238"></path><path d="M126.74,393.16a38.2,38.2,0,0,0,20.34-6.66s-4.55,11.55-20.07,10.81Z" style="fill:#6f4439"></path><path d="M129.07,351.43c.28.66,2.09.07,4.31.12s4.11.61,4.31-.05c.08-.32-.32-.92-1.12-1.49a6.08,6.08,0,0,0-3.35-1.05,5.41,5.41,0,0,0-3.22,1C129.27,350.51,129,351.11,129.07,351.43Z" style="fill:#263238"></path><path d="M109.48,351.53c.38.6,1.94,0,3.79.05s3.42.49,3.79-.11c.16-.3-.07-.9-.75-1.47a4.88,4.88,0,0,0-6.11.05C109.54,350.64,109.31,351.24,109.48,351.53Z" style="fill:#263238"></path><path d="M153.81,359s9.78-4.08,9.95,5.61-9.34,7.77-9.36,7.49S153.81,359,153.81,359Z" style="fill:#ae7461"></path><path d="M157.22,368.41s.16.12.44.25a1.61,1.61,0,0,0,1.23,0c1-.38,1.8-2,1.82-3.76a5.8,5.8,0,0,0-.5-2.41,2,2,0,0,0-1.26-1.29.83.83,0,0,0-1,.47c-.12.28-.06.47-.11.49s-.21-.16-.14-.56a1,1,0,0,1,.36-.61,1.18,1.18,0,0,1,.91-.26,2.37,2.37,0,0,1,1.74,1.49,5.83,5.83,0,0,1,.62,2.69c0,2-1,3.79-2.33,4.21a1.71,1.71,0,0,1-1.5-.25C157.24,368.65,157.19,368.43,157.22,368.41Z" style="fill:#6f4439"></path><path d="M126,376.71c0,.08.44.28,1.23.24a4.63,4.63,0,0,0,2.81-1.17,4.57,4.57,0,0,0,1.45-2.69c.12-.78,0-1.26-.11-1.25s-.15.47-.37,1.14a5.21,5.21,0,0,1-1.44,2.28,5.16,5.16,0,0,1-2.4,1.2C126.47,376.61,126,376.61,126,376.71Z" style="fill:#263238"></path><g style="opacity:0.4"><path d="M138.16,367.08a3.06,3.06,0,0,0-1.89-.77,6.52,6.52,0,0,0-1.58.26,2.17,2.17,0,0,0-1.26.94,1.36,1.36,0,0,0,.06,1.5,1.92,1.92,0,0,0,1.12.57,6,6,0,0,0,2.11.05,2.23,2.23,0,0,0,1.64-.9A1.34,1.34,0,0,0,138.16,367.08Z" style="fill:#6f4439"></path></g><g style="opacity:0.4"><path d="M114.87,369a3.09,3.09,0,0,0-1.88-.77,6.87,6.87,0,0,0-1.58.26,2.26,2.26,0,0,0-1.26.94,1.36,1.36,0,0,0,.06,1.51,2,2,0,0,0,1.11.56,6,6,0,0,0,2.12.05,2.25,2.25,0,0,0,1.64-.89A1.34,1.34,0,0,0,114.87,369Z" style="fill:#6f4439"></path></g><path d="M159.36,346a12.27,12.27,0,0,0-3.19-7c-1.73-2-2.92-6.07-5.16-7.41-4.82-2.87-11.13-2.41-16.7-3.07s-14.36-3-19.21-.2l-11.42,15.35c.77,2.39,4.62,3.34,6,2.16a4.86,4.86,0,0,0,1.5-5c3,1.11,8.4-1.05,9.16-4.14,3.21,3.61,7.57,4.43,11.44,1.54a7.54,7.54,0,0,0,11.44,6,8.85,8.85,0,0,0-1,6.62c.66,2.2,2.93,4,5.18,3.54a10.27,10.27,0,0,0-2.2,4.85,6,6,0,0,0,1.51,5,4.22,4.22,0,0,0,4.95.77,7.16,7.16,0,0,0,2.49-3.48L157,355C158.29,352.15,159.6,349.11,159.36,346Z" style="fill:#263238"></path><path d="M164.7,344.14s-.22-.59-.82-1.54a7.77,7.77,0,0,0-3.55-3l-.13-.06,0-.15a9,9,0,0,0-1.46-6.84,8.76,8.76,0,0,0-10.39-3l-.37.15v-.4a9.1,9.1,0,0,0-2.9-6.89,8.62,8.62,0,0,0-5.64-2.28,9.42,9.42,0,0,0-4.08.77c-.9.4-1.34.72-1.37.68s.09-.1.31-.26a5.49,5.49,0,0,1,1-.59,9.18,9.18,0,0,1,4.17-1,8.83,8.83,0,0,1,5.94,2.29,9.49,9.49,0,0,1,3.11,7.25l-.36-.25a9.2,9.2,0,0,1,11,3.17,9.25,9.25,0,0,1,1.42,7.19l-.1-.21a7.69,7.69,0,0,1,3.57,3.22,6.12,6.12,0,0,1,.54,1.2A1.92,1.92,0,0,1,164.7,344.14Z" style="fill:#455a64"></path><path d="M254.4,375.89c0,.4.74,14.13.74,14.13l20.26-1.49-1.67-16.12Z" style="fill:#ebebeb"></path><path d="M274.86,377.87l-.4-1.57s19.89-12.55,18.67-18.29L250.5,365.4l3.62,16.32C259.88,377.23,266.87,375.74,274.86,377.87Z" style="fill:#FF725E"></path><path d="M250.5,365.4l.87,3.93,41.09-8.54a4.52,4.52,0,0,0,.67-2.78Z" style="fill:#e0e0e0"></path><path d="M272.82,370.51c-.06,0-.09.38.05,1a5.45,5.45,0,0,0,1,2.1,4.79,4.79,0,0,0,1.74,1.39c.5.22.84.23.85.17a11.42,11.42,0,0,1-2.24-1.9A13.58,13.58,0,0,1,272.82,370.51Z" style="fill:#fff"></path><path d="M270.66,371.46a4.89,4.89,0,0,0,1.25,3c1.13,1.43,2.48,1.86,2.5,1.73a26,26,0,0,1-2.15-2.08C271.21,372.8,270.8,371.42,270.66,371.46Z" style="fill:#fff"></path><path d="M275.93,368.77a3.72,3.72,0,0,0,.34,2.69c.62,1.45,1.64,2.15,1.69,2s-.72-.93-1.27-2.24S276.07,368.77,275.93,368.77Z" style="fill:#fff"></path><path d="M276.48,374.66a3.05,3.05,0,0,0-.4,1.77,10.73,10.73,0,0,0,.16,2q.09.57.21,1.17a5.26,5.26,0,0,0,.17.65,1,1,0,0,0,.57.6.61.61,0,0,0,.72-.37,1.75,1.75,0,0,0,.15-.69,6.95,6.95,0,0,0-.61-3.19c-.49-1.06-1-1.54-1.05-1.49s.37.6.75,1.63a7.58,7.58,0,0,1,.43,1.87,5.84,5.84,0,0,1,0,1.11c0,.37-.17.69-.31.61s-.31-.41-.39-.82l-.24-1.14a14.62,14.62,0,0,1-.25-1.93C276.36,375.35,276.55,374.69,276.48,374.66Z" style="fill:#fff"></path><path d="M276.8,374.75s-.08-.07-.26-.13l-.14-.05.07.17a6.82,6.82,0,0,0,1.12,1.75,8,8,0,0,0,1.15,1.08,7.67,7.67,0,0,0,.73.48,1.25,1.25,0,0,0,.47.19.61.61,0,0,0,.58-.2.79.79,0,0,0,0-.87,2.35,2.35,0,0,0-.39-.5,6,6,0,0,0-.79-.74,5.63,5.63,0,0,0-1.54-.88c-.93-.34-1.53-.3-1.52-.24s.57.18,1.42.59a7.25,7.25,0,0,1,1.4.92,8,8,0,0,1,.72.71c.26.26.42.59.32.63-.16.23-.8-.25-1.2-.51a8.52,8.52,0,0,1-1.13-1,14.07,14.07,0,0,1-1.25-1.52l-.07.12C276.71,374.79,276.8,374.78,276.8,374.75Z" style="fill:#fff"></path><path d="M188.19,414S200,409.31,210,409.31s24.08,6,24.08,6l19.44,4.62.65-35.06,22.9-.62s2.26,42.07,1.16,52.26c-1.77,16.39-11.49,16.39-25.06,16.39s-68.25-.19-68.25-.19Z" style="fill:#263238"></path><path d="M276.79,441a2.52,2.52,0,0,1,0-.57c0-.42,0-.95.05-1.6.06-1.47.13-3.47.23-5.91.18-5,.39-11.87.45-19.48s-.06-14.5-.17-19.48c-.06-2.44-.11-4.44-.14-5.91l0-1.61a2.07,2.07,0,0,1,0-.56,1.93,1.93,0,0,1,.08.56c0,.42.07.95.12,1.6.1,1.39.2,3.41.31,5.9.21,5,.37,11.89.32,19.51s-.32,14.51-.61,19.49c-.14,2.49-.27,4.51-.39,5.9-.06.65-.1,1.18-.14,1.6A2.11,2.11,0,0,1,276.79,441Z" style="fill:#455a64"></path><path d="M256.07,427.42c-.15,0-.56-1.63-1.35-3.58s-1.62-3.43-1.49-3.51a12.57,12.57,0,0,1,2.84,7.09Z" style="fill:#455a64"></path><path d="M94.14,439.77s-12.2-5-14.91-6.26-8.13,1.67-8.32,3.13a2.53,2.53,0,0,0,1,2.29s-.77,3.13.68,4.28c0,0-1.16,3.55.78,4.8a4.4,4.4,0,0,0,1.06,4.8c2.23,2.3,13.65,2.09,16.26,1.88a66.52,66.52,0,0,1,8.43.12c0,.09,2.51-14.42,2.51-14.42Z" style="fill:#ae7461"></path><path d="M123.59,429.9c13.19,15.87,26.26,24.23,42.5,27.1,9.16,1.63,35.2,2.18,35.2,2.18,5.55-18,5.66-34.39-.84-48.77H173.9s-15.23-17.11-20.81-18.16c0,0-27.45,8.07-28.1,11.43C122.88,414.62,123.59,429.9,123.59,429.9Z" style="fill:#FF725E"></path><path d="M151.69,402.35c-7.17-9.1-21.86-5.34-23.67,6.1l-.06.4C126,422.41,125,439.09,125,439.09L95,439l-3,18.16s40.88,5.25,48.58.45,7.25-16.95,9.43-27.87c1.91-9.61,3.57-16.11,3.84-22.32A8.08,8.08,0,0,0,151.69,402.35Z" style="fill:#FF725E"></path><path d="M151.69,402.35a10,10,0,0,1,1.26,1.78,7,7,0,0,1,.89,2.5,8,8,0,0,1,0,1.69q0,.92-.15,1.92c-.26,2.71-.82,6-1.58,9.78s-1.74,8.08-2.52,12.87c-.38,2.39-.7,4.92-1.08,7.55a58.11,58.11,0,0,1-1.66,8.13,17,17,0,0,1-4.32,7.75,12.47,12.47,0,0,1-1.83,1.46,8.51,8.51,0,0,1-2.2.93,26.61,26.61,0,0,1-4.73.84,135.36,135.36,0,0,1-20.22-.08c-7-.45-14.24-1.13-21.63-2l-.27,0,0-.27c.07-.4.14-.84.22-1.28,1-5.75,1.88-11.39,2.79-16.87l0-.22H95l30.07.1-.23.22c.6-9.14,1.38-17.53,2.28-25q.35-2.79.72-5.4a24.8,24.8,0,0,1,.62-2.54l.48-1.18c.08-.19.15-.39.24-.58l.32-.53a13.24,13.24,0,0,1,6.75-5.78,14.24,14.24,0,0,1,7.2-.77,14,14,0,0,1,5,2,12.65,12.65,0,0,1,2.53,2.19l.56.65a2.07,2.07,0,0,1,.19.23l-.22-.21-.59-.61a13,13,0,0,0-2.55-2.12,13.18,13.18,0,0,0-12-1.06,12.92,12.92,0,0,0-6.56,5.69c-1.72,2.78-1.77,6.42-2.29,10.11-.87,7.44-1.62,15.83-2.2,25l0,.22H125L95,439.28l.25-.22c-.91,5.48-1.84,11.13-2.79,16.88-.07.43-.15.87-.21,1.28l-.23-.3c7.38.9,14.61,1.59,21.6,2a134.43,134.43,0,0,0,20.14.11c3.15-.34,6.42-.78,8.5-3.08a16.74,16.74,0,0,0,4.22-7.54,58,58,0,0,0,1.67-8.07c.39-2.62.72-5.15,1.12-7.55.81-4.81,1.83-9.08,2.59-12.86s1.38-7.05,1.67-9.75c.08-.67.13-1.31.17-1.91a7.87,7.87,0,0,0,0-1.67,7.07,7.07,0,0,0-.84-2.46,12.05,12.05,0,0,0-.85-1.38Z" style="fill:#263238"></path><path d="M178,434.57a24.28,24.28,0,0,1-.39-3.15c-.2-1.95-.5-4.63-.94-7.58s-.92-5.61-1.29-7.53a24.37,24.37,0,0,1-.54-3.12,16.33,16.33,0,0,1,.9,3.05c.46,1.9,1,4.56,1.45,7.52s.68,5.67.79,7.63A16.89,16.89,0,0,1,178,434.57Z" style="fill:#263238"></path><path d="M13.89,377.15s39.82-11.62,39.82-11c0,.07.83.42.86,1.1.3,5.84.91,31.63.91,31.63L14,392l-2.18-13.23Z" style="fill:#455a64"></path><polygon points="59.8 452.51 66.03 446.83 62.91 381.12 13.3 378.13 10.75 381.61 18.45 442.09 59.8 452.51" style="fill:#ebebeb"></polygon><polygon points="13.3 383.7 54.77 387.18 58.83 454.11 18.45 444.32 13.3 383.7" style="fill:#455a64"></polygon><polygon points="13.3 378.13 57.59 369.98 59.6 372.16 59.8 380.82 26.19 379.29 13.3 378.13" style="fill:#e0e0e0"></polygon><path d="M14,442.3,8.15,381.83s.33-3.93,5.74-4.68a5.06,5.06,0,0,0-.59,6.55l5.15,60.62A11.76,11.76,0,0,1,14,442.3Z" style="fill:#263238"></path><path d="M12.45,379.29a1.88,1.88,0,0,1,.51,0l1.48,0,5.41,0c4.57.06,10.88.2,17.85.43s13.28.54,17.84.82c2.28.14,4.13.27,5.4.38l1.47.14a1.68,1.68,0,0,1,.51.08,2.15,2.15,0,0,1-.52,0l-1.47,0-5.41-.21-17.84-.67-17.84-.58-5.41-.2L13,379.36A2,2,0,0,1,12.45,379.29Z" style="fill:#263238"></path><path d="M17.47,379.29c0-.14,9.35-1.84,21-3.79s21-3.43,21-3.28-9.36,1.84-21,3.79S17.49,379.43,17.47,379.29Z" style="fill:#263238"></path><path d="M62.8,381.14c.1.14-1.83,1.51-4.2,3.14s-3.92,3.38-4,3.3a3.69,3.69,0,0,1,.9-1.27,17.23,17.23,0,0,1,2.83-2.45A26.21,26.21,0,0,1,62.8,381.14Z" style="fill:#263238"></path></g></svg>
